<svg width="309" height="139" viewBox="0 0 309 139" fill="none" xmlns="http://www.w3.org/2000/svg">
<g clip-path="url(#clip0_68_2)">
<rect width="309" height="139" fill="white"/>
<path d="M21.372 131.076L18.132 125.82H19.428L21.912 130.056H21.936L24.516 125.82H25.704L22.476 131.004V135H21.372V131.076ZM26.2926 130.44C26.2926 129.616 26.4046 128.908 26.6286 128.316C26.8526 127.716 27.1526 127.224 27.5286 126.84C27.9046 126.448 28.3406 126.16 28.8366 125.976C29.3326 125.784 29.8526 125.688 30.3966 125.688C30.9566 125.688 31.4846 125.784 31.9806 125.976C32.4846 126.16 32.9246 126.448 33.3006 126.84C33.6766 127.224 33.9766 127.716 34.2006 128.316C34.4246 128.908 34.5366 129.616 34.5366 130.44C34.5366 131.256 34.4246 131.964 34.2006 132.564C33.9846 133.164 33.6846 133.66 33.3006 134.052C32.9246 134.436 32.4846 134.724 31.9806 134.916C31.4846 135.1 30.9566 135.192 30.3966 135.192C29.8286 135.192 29.2966 135.1 28.8006 134.916C28.3046 134.724 27.8686 134.436 27.4926 134.052C27.1246 133.66 26.8326 133.164 26.6166 132.564C26.4006 131.964 26.2926 131.256 26.2926 130.44ZM30.3966 134.292C30.8286 134.292 31.2246 134.208 31.5846 134.04C31.9526 133.872 32.2646 133.628 32.5206 133.308C32.7846 132.98 32.9886 132.576 33.1326 132.096C33.2846 131.616 33.3606 131.068 33.3606 130.452C33.3606 129.82 33.2886 129.264 33.1446 128.784C33.0006 128.304 32.7966 127.9 32.5326 127.572C32.2766 127.244 31.9646 126.996 31.5966 126.828C31.2366 126.66 30.8366 126.576 30.3966 126.576C29.9646 126.576 29.5686 126.656 29.2086 126.816C28.8566 126.976 28.5486 127.22 28.2846 127.548C28.0286 127.868 27.8286 128.272 27.6846 128.76C27.5406 129.24 27.4686 129.804 27.4686 130.452C27.4686 131.076 27.5366 131.628 27.6726 132.108C27.8166 132.588 28.0166 132.992 28.2726 133.32C28.5286 133.64 28.8366 133.884 29.1966 134.052C29.5566 134.212 29.9566 134.292 30.3966 134.292ZM36.4595 125.82H37.5755V131.1C37.5755 131.308 37.5755 131.524 37.5755 131.748C37.5835 131.972 37.6035 132.188 37.6355 132.396C37.6675 132.604 37.7155 132.804 37.7795 132.996C37.8435 133.18 37.9315 133.344 38.0435 133.488C38.2595 133.76 38.5275 133.96 38.8475 134.088C39.1675 134.208 39.5395 134.268 39.9635 134.268C40.3875 134.268 40.7595 134.208 41.0795 134.088C41.4075 133.96 41.6755 133.76 41.8835 133.488C41.9955 133.344 42.0795 133.18 42.1355 132.996C42.1995 132.804 42.2435 132.604 42.2675 132.396C42.2915 132.188 42.3035 131.972 42.3035 131.748C42.3115 131.524 42.3155 131.308 42.3155 131.1V125.82H43.4195V131.94C43.4195 132.516 43.3355 133.008 43.1675 133.416C42.9995 133.824 42.7635 134.16 42.4595 134.424C42.1555 134.688 41.7875 134.88 41.3555 135C40.9315 135.12 40.4595 135.18 39.9395 135.18C39.4115 135.18 38.9315 135.12 38.4995 135C38.0755 134.88 37.7115 134.692 37.4075 134.436C37.1035 134.172 36.8675 133.836 36.6995 133.428C36.5395 133.02 36.4595 132.524 36.4595 131.94V125.82ZM45.7675 125.82H47.1955L51.2755 132.648C51.3555 132.776 51.4235 132.896 51.4795 133.008C51.5355 133.112 51.5835 133.204 51.6235 133.284C51.6635 133.38 51.7035 133.468 51.7435 133.548H51.7795V125.82H52.8355V135H51.4075L47.3395 128.184C47.2515 128.032 47.1755 127.9 47.1115 127.788C47.0555 127.676 47.0075 127.584 46.9675 127.512L46.8595 127.296H46.8355V135H45.7675V125.82ZM59.0626 126.576C58.5666 126.576 58.1306 126.672 57.7546 126.864C57.3786 127.048 57.0626 127.312 56.8066 127.656C56.5586 127.992 56.3706 128.404 56.2426 128.892C56.1146 129.372 56.0506 129.904 56.0506 130.488C56.0506 131.712 56.2986 132.652 56.7946 133.308C57.2906 133.956 58.0066 134.28 58.9426 134.28C59.8146 134.28 60.4946 134.04 60.9826 133.56C61.4706 133.08 61.7146 132.388 61.7146 131.484V131.352H59.0626V130.368H62.8066V135H61.8346V133.68H61.7866C61.6746 133.88 61.5306 134.072 61.3546 134.256C61.1866 134.44 60.9826 134.6 60.7426 134.736C60.5106 134.872 60.2386 134.98 59.9266 135.06C59.6226 135.148 59.2866 135.192 58.9186 135.192C58.3426 135.192 57.8066 135.096 57.3106 134.904C56.8146 134.712 56.3866 134.424 56.0266 134.04C55.6666 133.648 55.3826 133.156 55.1746 132.564C54.9746 131.964 54.8746 131.26 54.8746 130.452C54.8746 129.7 54.9786 129.032 55.1866 128.448C55.4026 127.856 55.6986 127.356 56.0746 126.948C56.4506 126.54 56.8946 126.228 57.4066 126.012C57.9186 125.796 58.4706 125.688 59.0626 125.688C59.5346 125.688 59.9706 125.748 60.3706 125.868C60.7706 125.98 61.1186 126.148 61.4146 126.372C61.7186 126.588 61.9666 126.856 62.1586 127.176C62.3506 127.488 62.4746 127.848 62.5306 128.256H61.3666C61.3266 127.992 61.2386 127.756 61.1026 127.548C60.9746 127.34 60.8066 127.164 60.5986 127.02C60.3986 126.876 60.1666 126.768 59.9026 126.696C59.6386 126.616 59.3586 126.576 59.0626 126.576ZM65.2441 125.82H71.1121V126.816H66.3601V129.876H70.7281V130.848H66.3601V134.004H71.1721V135H65.2441V125.82ZM76.5932 130.188C76.8652 130.188 77.1132 130.156 77.3372 130.092C77.5692 130.02 77.7692 129.912 77.9372 129.768C78.1052 129.624 78.2372 129.44 78.3332 129.216C78.4292 128.992 78.4772 128.724 78.4772 128.412C78.4772 127.844 78.3012 127.424 77.9492 127.152C77.6052 126.872 77.1692 126.732 76.6412 126.732H74.4812V130.188H76.5932ZM76.5212 131.112H74.4812V135H73.3652V125.82H76.6892C77.3532 125.82 77.9452 125.956 78.4652 126.228C78.8332 126.436 79.1212 126.72 79.3292 127.08C79.5452 127.432 79.6532 127.872 79.6532 128.4C79.6532 128.832 79.5892 129.196 79.4612 129.492C79.3332 129.788 79.1732 130.036 78.9812 130.236C78.7892 130.428 78.5772 130.58 78.3452 130.692C78.1132 130.796 77.8932 130.876 77.6852 130.932V130.956L79.7132 135H78.4172L76.5212 131.112Z" fill="black"/>
<path d="M266.961 130.44C266.961 129.616 267.073 128.908 267.297 128.316C267.521 127.716 267.821 127.224 268.197 126.84C268.573 126.448 269.009 126.16 269.505 125.976C270.001 125.784 270.521 125.688 271.065 125.688C271.625 125.688 272.153 125.784 272.649 125.976C273.153 126.16 273.593 126.448 273.969 126.84C274.345 127.224 274.645 127.716 274.869 128.316C275.093 128.908 275.205 129.616 275.205 130.44C275.205 131.256 275.093 131.964 274.869 132.564C274.653 133.164 274.353 133.66 273.969 134.052C273.593 134.436 273.153 134.724 272.649 134.916C272.153 135.1 271.625 135.192 271.065 135.192C270.497 135.192 269.965 135.1 269.469 134.916C268.973 134.724 268.537 134.436 268.161 134.052C267.793 133.66 267.501 133.164 267.285 132.564C267.069 131.964 266.961 131.256 266.961 130.44ZM271.065 134.292C271.497 134.292 271.893 134.208 272.253 134.04C272.621 133.872 272.933 133.628 273.189 133.308C273.453 132.98 273.657 132.576 273.801 132.096C273.953 131.616 274.029 131.068 274.029 130.452C274.029 129.82 273.957 129.264 273.813 128.784C273.669 128.304 273.465 127.9 273.201 127.572C272.945 127.244 272.633 126.996 272.265 126.828C271.905 126.66 271.505 126.576 271.065 126.576C270.633 126.576 270.237 126.656 269.877 126.816C269.525 126.976 269.217 127.22 268.953 127.548C268.697 127.868 268.497 128.272 268.353 128.76C268.209 129.24 268.137 129.804 268.137 130.452C268.137 131.076 268.205 131.628 268.341 132.108C268.485 132.588 268.685 132.992 268.941 133.32C269.197 133.64 269.505 133.884 269.865 134.052C270.225 134.212 270.625 134.292 271.065 134.292ZM277.271 125.82H278.387V134.004H282.947V135H277.271V125.82ZM284.502 125.82H287.322C287.946 125.82 288.53 125.9 289.074 126.06C289.618 126.22 290.086 126.48 290.478 126.84C290.878 127.192 291.19 127.652 291.414 128.22C291.646 128.788 291.762 129.48 291.762 130.296C291.762 131.104 291.654 131.804 291.438 132.396C291.23 132.988 290.934 133.476 290.55 133.86C290.166 134.244 289.71 134.532 289.182 134.724C288.654 134.908 288.078 135 287.454 135H284.502V125.82ZM287.322 134.04C287.81 134.04 288.254 133.976 288.654 133.848C289.054 133.712 289.398 133.496 289.686 133.2C289.974 132.904 290.198 132.52 290.358 132.048C290.518 131.576 290.598 131.004 290.598 130.332C290.598 129.692 290.518 129.148 290.358 128.7C290.198 128.244 289.974 127.876 289.686 127.596C289.406 127.308 289.07 127.1 288.678 126.972C288.286 126.844 287.858 126.78 287.394 126.78H285.618V134.04H287.322ZM293.818 125.82H299.686V126.816H294.934V129.876H299.302V130.848H294.934V134.004H299.746V135H293.818V125.82ZM305.167 130.188C305.439 130.188 305.687 130.156 305.911 130.092C306.143 130.02 306.343 129.912 306.511 129.768C306.679 129.624 306.811 129.44 306.907 129.216C307.003 128.992 307.051 128.724 307.051 128.412C307.051 127.844 306.875 127.424 306.523 127.152C306.179 126.872 305.743 126.732 305.215 126.732H303.055V130.188H305.167ZM305.095 131.112H303.055V135H301.939V125.82H305.263C305.927 125.82 306.519 125.956 307.039 126.228C307.407 126.436 307.695 126.72 307.903 127.08C308.119 127.432 308.227 127.872 308.227 128.4C308.227 128.832 308.163 129.196 308.035 129.492C307.907 129.788 307.747 130.036 307.555 130.236C307.363 130.428 307.151 130.58 306.919 130.692C306.687 130.796 306.467 130.876 306.259 130.932V130.956L308.287 135H306.991L305.095 131.112Z" fill="black"/>
<path d="M5.652 102.028C5.588 101.66 5.428 101.368 5.172 101.152C4.916 100.928 4.56 100.816 4.104 100.816C3.704 100.816 3.368 100.912 3.096 101.104C2.832 101.296 2.612 101.56 2.436 101.896C2.268 102.232 2.144 102.628 2.064 103.084C1.984 103.532 1.936 104.012 1.92 104.524H1.968C2.176 104.148 2.476 103.848 2.868 103.624C3.26 103.4 3.708 103.288 4.212 103.288C4.548 103.288 4.876 103.344 5.196 103.456C5.524 103.56 5.816 103.728 6.072 103.96C6.328 104.192 6.536 104.488 6.696 104.848C6.856 105.2 6.936 105.628 6.936 106.132C6.936 106.572 6.864 106.98 6.72 107.356C6.584 107.724 6.384 108.044 6.12 108.316C5.864 108.588 5.548 108.8 5.172 108.952C4.804 109.104 4.388 109.18 3.924 109.18C3.524 109.18 3.136 109.12 2.76 109C2.392 108.888 2.064 108.68 1.776 108.376C1.488 108.072 1.256 107.652 1.08 107.116C0.912 106.58 0.828 105.896 0.828 105.064C0.828 103.376 1.096 102.108 1.632 101.26C2.168 100.404 2.992 99.976 4.104 99.976C4.904 99.976 5.516 100.156 5.94 100.516C6.372 100.876 6.62 101.38 6.684 102.028H5.652ZM3.936 108.268C4.16 108.268 4.384 108.228 4.608 108.148C4.832 108.068 5.032 107.948 5.208 107.788C5.392 107.62 5.536 107.408 5.64 107.152C5.752 106.896 5.808 106.588 5.808 106.228C5.808 105.9 5.76 105.612 5.664 105.364C5.568 105.108 5.436 104.896 5.268 104.728C5.1 104.56 4.9 104.432 4.668 104.344C4.444 104.256 4.2 104.212 3.936 104.212C3.664 104.212 3.412 104.252 3.18 104.332C2.956 104.412 2.76 104.536 2.592 104.704C2.424 104.872 2.292 105.084 2.196 105.34C2.108 105.588 2.064 105.884 2.064 106.228C2.064 106.588 2.116 106.896 2.22 107.152C2.332 107.408 2.472 107.62 2.64 107.788C2.816 107.948 3.016 108.068 3.24 108.148C3.464 108.228 3.696 108.268 3.936 108.268ZM8.14913 107.536H9.61313V109H8.14913V107.536ZM10.8358 104.584C10.8358 103.808 10.9118 103.132 11.0638 102.556C11.2158 101.98 11.4278 101.5 11.6998 101.116C11.9798 100.732 12.3158 100.448 12.7078 100.264C13.0998 100.072 13.5358 99.976 14.0158 99.976C14.5038 99.976 14.9438 100.072 15.3358 100.264C15.7278 100.448 16.0638 100.732 16.3438 101.116C16.6238 101.5 16.8398 101.98 16.9918 102.556C17.1438 103.132 17.2198 103.808 17.2198 104.584C17.2198 105.352 17.1438 106.024 16.9918 106.6C16.8398 107.176 16.6238 107.656 16.3438 108.04C16.0718 108.424 15.7358 108.712 15.3358 108.904C14.9438 109.096 14.5038 109.192 14.0158 109.192C13.0318 109.192 12.2558 108.812 11.6878 108.052C11.1198 107.284 10.8358 106.128 10.8358 104.584ZM14.0158 108.304C14.6398 108.304 15.1358 107.992 15.5038 107.368C15.8718 106.744 16.0558 105.824 16.0558 104.608C16.0558 103.368 15.8758 102.436 15.5158 101.812C15.1558 101.188 14.6558 100.876 14.0158 100.876C13.3918 100.876 12.8998 101.18 12.5398 101.788C12.1798 102.396 11.9998 103.336 11.9998 104.608C11.9998 105.848 12.1758 106.776 12.5278 107.392C12.8798 108 13.3758 108.304 14.0158 108.304Z" fill="black"/>
<path d="M133.809 125.82H135.501L137.829 132.396C137.901 132.604 137.961 132.78 138.009 132.924C138.057 133.068 138.101 133.192 138.141 133.296C138.173 133.416 138.205 133.516 138.237 133.596H138.261C138.285 133.516 138.317 133.416 138.357 133.296C138.389 133.192 138.429 133.068 138.477 132.924C138.533 132.78 138.597 132.604 138.669 132.396L141.033 125.82H142.713V135H141.573V127.116H141.537C141.505 127.212 141.465 127.332 141.417 127.476C141.377 127.596 141.325 127.748 141.261 127.932C141.205 128.108 141.133 128.316 141.045 128.556L138.729 135H137.673L135.417 128.556C135.329 128.316 135.253 128.108 135.189 127.932C135.133 127.748 135.085 127.596 135.045 127.476C134.997 127.332 134.957 127.212 134.925 127.116H134.889V135H133.809V125.82ZM145.223 125.82H146.339V135H145.223V125.82ZM148.844 125.82H151.664C152.288 125.82 152.872 125.9 153.416 126.06C153.96 126.22 154.428 126.48 154.82 126.84C155.22 127.192 155.532 127.652 155.756 128.22C155.988 128.788 156.104 129.48 156.104 130.296C156.104 131.104 155.996 131.804 155.78 132.396C155.572 132.988 155.276 133.476 154.892 133.86C154.508 134.244 154.052 134.532 153.524 134.724C152.996 134.908 152.42 135 151.796 135H148.844V125.82ZM151.664 134.04C152.152 134.04 152.596 133.976 152.996 133.848C153.396 133.712 153.74 133.496 154.028 133.2C154.316 132.904 154.54 132.52 154.7 132.048C154.86 131.576 154.94 131.004 154.94 130.332C154.94 129.692 154.86 129.148 154.7 128.7C154.54 128.244 154.316 127.876 154.028 127.596C153.748 127.308 153.412 127.1 153.02 126.972C152.628 126.844 152.2 126.78 151.736 126.78H149.96V134.04H151.664ZM158.16 125.82H160.98C161.604 125.82 162.188 125.9 162.732 126.06C163.276 126.22 163.744 126.48 164.136 126.84C164.536 127.192 164.848 127.652 165.072 128.22C165.304 128.788 165.42 129.48 165.42 130.296C165.42 131.104 165.312 131.804 165.096 132.396C164.888 132.988 164.592 133.476 164.208 133.86C163.824 134.244 163.368 134.532 162.84 134.724C162.312 134.908 161.736 135 161.112 135H158.16V125.82ZM160.98 134.04C161.468 134.04 161.912 133.976 162.312 133.848C162.712 133.712 163.056 133.496 163.344 133.2C163.632 132.904 163.856 132.52 164.016 132.048C164.176 131.576 164.256 131.004 164.256 130.332C164.256 129.692 164.176 129.148 164.016 128.7C163.856 128.244 163.632 127.876 163.344 127.596C163.064 127.308 162.728 127.1 162.336 126.972C161.944 126.844 161.516 126.78 161.052 126.78H159.276V134.04H160.98ZM167.477 125.82H168.593V134.004H173.153V135H167.477V125.82ZM174.707 125.82H180.575V126.816H175.823V129.876H180.191V130.848H175.823V134.004H180.635V135H174.707V125.82ZM189.218 126.936C189.21 126.952 189.194 126.996 189.17 127.068C189.154 127.14 189.126 127.232 189.086 127.344C189.054 127.448 189.018 127.564 188.978 127.692C188.938 127.82 188.894 127.948 188.846 128.076L187.706 131.364H190.754L189.602 128.076C189.554 127.94 189.506 127.804 189.458 127.668C189.418 127.532 189.382 127.408 189.35 127.296C189.31 127.168 189.274 127.048 189.242 126.936H189.218ZM191.066 132.264H187.394L186.446 135H185.33L188.594 125.82H189.914L193.214 135H192.026L191.066 132.264ZM198.385 126.576C197.889 126.576 197.453 126.672 197.077 126.864C196.701 127.048 196.385 127.312 196.129 127.656C195.881 127.992 195.693 128.404 195.565 128.892C195.437 129.372 195.373 129.904 195.373 130.488C195.373 131.712 195.621 132.652 196.117 133.308C196.613 133.956 197.329 134.28 198.265 134.28C199.137 134.28 199.817 134.04 200.305 133.56C200.793 133.08 201.037 132.388 201.037 131.484V131.352H198.385V130.368H202.129V135H201.157V133.68H201.109C200.997 133.88 200.853 134.072 200.677 134.256C200.509 134.44 200.305 134.6 200.065 134.736C199.833 134.872 199.561 134.98 199.249 135.06C198.945 135.148 198.609 135.192 198.241 135.192C197.665 135.192 197.129 135.096 196.633 134.904C196.137 134.712 195.709 134.424 195.349 134.04C194.989 133.648 194.705 133.156 194.497 132.564C194.297 131.964 194.197 131.26 194.197 130.452C194.197 129.7 194.301 129.032 194.509 128.448C194.725 127.856 195.021 127.356 195.397 126.948C195.773 126.54 196.217 126.228 196.729 126.012C197.241 125.796 197.793 125.688 198.385 125.688C198.857 125.688 199.293 125.748 199.693 125.868C200.093 125.98 200.441 126.148 200.737 126.372C201.041 126.588 201.289 126.856 201.481 127.176C201.673 127.488 201.797 127.848 201.853 128.256H200.689C200.649 127.992 200.561 127.756 200.425 127.548C200.297 127.34 200.129 127.164 199.921 127.02C199.721 126.876 199.489 126.768 199.225 126.696C198.961 126.616 198.681 126.576 198.385 126.576ZM204.566 125.82H210.434V126.816H205.682V129.876H210.05V130.848H205.682V134.004H210.494V135H204.566V125.82Z" fill="black"/>
<path d="M141.073 10H140.143V2.35H141.073V5.72H145.083V2.35H146.013V10H145.083V6.55H141.073V10ZM150.692 3.28C150.685 3.29333 150.672 3.33 150.652 3.39C150.638 3.45 150.615 3.52667 150.582 3.62C150.555 3.70667 150.525 3.80333 150.492 3.91C150.458 4.01667 150.422 4.12333 150.382 4.23L149.432 6.97H151.972L151.012 4.23C150.972 4.11667 150.932 4.00333 150.892 3.89C150.858 3.77667 150.828 3.67333 150.802 3.58C150.768 3.47333 150.738 3.37333 150.712 3.28H150.692ZM152.232 7.72H149.172L148.382 10H147.452L150.172 2.35H151.272L154.022 10H153.032L152.232 7.72ZM156.385 7.08V10H155.455V2.35H157.755C158.122 2.35 158.465 2.39667 158.785 2.49C159.112 2.57667 159.392 2.71667 159.625 2.91C159.858 3.09667 160.042 3.34 160.175 3.64C160.315 3.93333 160.385 4.28667 160.385 4.7C160.385 5.10667 160.315 5.46 160.175 5.76C160.042 6.05333 159.855 6.3 159.615 6.5C159.375 6.69333 159.088 6.84 158.755 6.94C158.428 7.03333 158.068 7.08 157.675 7.08H156.385ZM157.675 6.33C158.235 6.33 158.665 6.19667 158.965 5.93C159.272 5.65667 159.425 5.24667 159.425 4.7C159.425 4.12667 159.272 3.71667 158.965 3.47C158.665 3.22333 158.245 3.1 157.705 3.1H156.385V6.33H157.675ZM162.772 7.08V10H161.842V2.35H164.142C164.508 2.35 164.852 2.39667 165.172 2.49C165.498 2.57667 165.778 2.71667 166.012 2.91C166.245 3.09667 166.428 3.34 166.562 3.64C166.702 3.93333 166.772 4.28667 166.772 4.7C166.772 5.10667 166.702 5.46 166.562 5.76C166.428 6.05333 166.242 6.3 166.002 6.5C165.762 6.69333 165.475 6.84 165.142 6.94C164.815 7.03333 164.455 7.08 164.062 7.08H162.772ZM164.062 6.33C164.622 6.33 165.052 6.19667 165.352 5.93C165.658 5.65667 165.812 5.24667 165.812 4.7C165.812 4.12667 165.658 3.71667 165.352 3.47C165.052 3.22333 164.632 3.1 164.092 3.1H162.772V6.33H164.062ZM168.228 2.35H169.158V10H168.228V2.35ZM171.246 2.35H176.136V3.18H172.176V5.73H175.816V6.54H172.176V9.17H176.186V10H171.246V2.35ZM180.704 5.99C180.93 5.99 181.137 5.96333 181.324 5.91C181.517 5.85 181.684 5.76 181.824 5.64C181.964 5.52 182.074 5.36667 182.154 5.18C182.234 4.99333 182.274 4.77 182.274 4.51C182.274 4.03667 182.127 3.68667 181.834 3.46C181.547 3.22667 181.184 3.11 180.744 3.11H178.944V5.99H180.704ZM180.644 6.76H178.944V10H178.014V2.35H180.784C181.337 2.35 181.83 2.46333 182.264 2.69C182.57 2.86333 182.81 3.1 182.984 3.4C183.164 3.69333 183.254 4.06 183.254 4.5C183.254 4.86 183.2 5.16333 183.094 5.41C182.987 5.65667 182.854 5.86333 182.694 6.03C182.534 6.19 182.357 6.31667 182.164 6.41C181.97 6.49667 181.787 6.56333 181.614 6.61V6.63L183.304 10H182.224L180.644 6.76Z" fill="black"/>
<path d="M161.91 84L180.806 74.3704L198.249 67.1482L214.966 55.1111L231.682 42.5926L249.125 35.8519L266.568 29.5926L283.284 25.7407L300 19" stroke="black" stroke-width="2"/>
<path d="M5.652 55.028C5.588 54.66 5.428 54.368 5.172 54.152C4.916 53.928 4.56 53.816 4.104 53.816C3.704 53.816 3.368 53.912 3.096 54.104C2.832 54.296 2.612 54.56 2.436 54.896C2.268 55.232 2.144 55.628 2.064 56.084C1.984 56.532 1.936 57.012 1.92 57.524H1.968C2.176 57.148 2.476 56.848 2.868 56.624C3.26 56.4 3.708 56.288 4.212 56.288C4.548 56.288 4.876 56.344 5.196 56.456C5.524 56.56 5.816 56.728 6.072 56.96C6.328 57.192 6.536 57.488 6.696 57.848C6.856 58.2 6.936 58.628 6.936 59.132C6.936 59.572 6.864 59.98 6.72 60.356C6.584 60.724 6.384 61.044 6.12 61.316C5.864 61.588 5.548 61.8 5.172 61.952C4.804 62.104 4.388 62.18 3.924 62.18C3.524 62.18 3.136 62.12 2.76 62C2.392 61.888 2.064 61.68 1.776 61.376C1.488 61.072 1.256 60.652 1.08 60.116C0.912 59.58 0.828 58.896 0.828 58.064C0.828 56.376 1.096 55.108 1.632 54.26C2.168 53.404 2.992 52.976 4.104 52.976C4.904 52.976 5.516 53.156 5.94 53.516C6.372 53.876 6.62 54.38 6.684 55.028H5.652ZM3.936 61.268C4.16 61.268 4.384 61.228 4.608 61.148C4.832 61.068 5.032 60.948 5.208 60.788C5.392 60.62 5.536 60.408 5.64 60.152C5.752 59.896 5.808 59.588 5.808 59.228C5.808 58.9 5.76 58.612 5.664 58.364C5.568 58.108 5.436 57.896 5.268 57.728C5.1 57.56 4.9 57.432 4.668 57.344C4.444 57.256 4.2 57.212 3.936 57.212C3.664 57.212 3.412 57.252 3.18 57.332C2.956 57.412 2.76 57.536 2.592 57.704C2.424 57.872 2.292 58.084 2.196 58.34C2.108 58.588 2.064 58.884 2.064 59.228C2.064 59.588 2.116 59.896 2.22 60.152C2.332 60.408 2.472 60.62 2.64 60.788C2.816 60.948 3.016 61.068 3.24 61.148C3.464 61.228 3.696 61.268 3.936 61.268ZM8.14913 60.536H9.61313V62H8.14913V60.536ZM15.8325 59.156C15.8325 58.82 15.7845 58.524 15.6885 58.268C15.5925 58.004 15.4605 57.784 15.2925 57.608C15.1245 57.432 14.9245 57.3 14.6925 57.212C14.4685 57.116 14.2245 57.068 13.9605 57.068C13.5925 57.068 13.2685 57.136 12.9885 57.272C12.7085 57.4 12.4845 57.592 12.3165 57.848H11.3805L11.7645 53.108H16.4925V54.044H12.6765L12.4485 56.876H12.4725C12.6325 56.692 12.8565 56.524 13.1445 56.372C13.4405 56.22 13.7925 56.144 14.2005 56.144C14.5445 56.144 14.8805 56.2 15.2085 56.312C15.5445 56.424 15.8405 56.604 16.0965 56.852C16.3605 57.092 16.5685 57.4 16.7205 57.776C16.8805 58.152 16.9605 58.604 16.9605 59.132C16.9605 59.596 16.8885 60.016 16.7445 60.392C16.6005 60.768 16.3965 61.088 16.1325 61.352C15.8685 61.616 15.5485 61.82 15.1725 61.964C14.7965 62.108 14.3725 62.18 13.9005 62.18C13.4045 62.18 12.9805 62.108 12.6285 61.964C12.2765 61.812 11.9885 61.62 11.7645 61.388C11.5405 61.148 11.3725 60.88 11.2605 60.584C11.1565 60.288 11.0925 59.988 11.0685 59.684H12.1605C12.2005 60.244 12.3805 60.648 12.7005 60.896C13.0205 61.144 13.4405 61.268 13.9605 61.268C14.1845 61.268 14.4085 61.228 14.6325 61.148C14.8565 61.068 15.0565 60.944 15.2325 60.776C15.4165 60.6 15.5605 60.38 15.6645 60.116C15.7765 59.844 15.8325 59.524 15.8325 59.156Z" fill="black"/>
<path d="M4.836 6.08H0.444V5.108H6.108V5.816L2.388 14H1.236L4.836 6.08ZM6.52022 12.536H7.98422V14H6.52022V12.536ZM9.20691 9.584C9.20691 8.808 9.28291 8.132 9.43491 7.556C9.58691 6.98 9.79891 6.5 10.0709 6.116C10.3509 5.732 10.6869 5.448 11.0789 5.264C11.4709 5.072 11.9069 4.976 12.3869 4.976C12.8749 4.976 13.3149 5.072 13.7069 5.264C14.0989 5.448 14.4349 5.732 14.7149 6.116C14.9949 6.5 15.2109 6.98 15.3629 7.556C15.5149 8.132 15.5909 8.808 15.5909 9.584C15.5909 10.352 15.5149 11.024 15.3629 11.6C15.2109 12.176 14.9949 12.656 14.7149 13.04C14.4429 13.424 14.1069 13.712 13.7069 13.904C13.3149 14.096 12.8749 14.192 12.3869 14.192C11.4029 14.192 10.6269 13.812 10.0589 13.052C9.49091 12.284 9.20691 11.128 9.20691 9.584ZM12.3869 13.304C13.0109 13.304 13.5069 12.992 13.8749 12.368C14.2429 11.744 14.4269 10.824 14.4269 9.608C14.4269 8.368 14.2469 7.436 13.8869 6.812C13.5269 6.188 13.0269 5.876 12.3869 5.876C11.7629 5.876 11.2709 6.18 10.9109 6.788C10.5509 7.396 10.3709 8.336 10.3709 9.608C10.3709 10.848 10.5469 11.776 10.8989 12.392C11.2509 13 11.7469 13.304 12.3869 13.304Z" fill="black"/>
<path d="M18 120H308" stroke="black" stroke-width="0.5"/>
<path d="M18 112H1" stroke="black" stroke-width="0.5"/>
<path d="M18 17H1" stroke="black" stroke-width="0.5"/>
<path d="M18 65H1" stroke="black" stroke-width="0.5"/>
<path d="M160 13L157.113 18H162.887L160 13ZM160 31H160.5V17.5H160H159.5V31H160Z" fill="black"/>
<path d="M51 114L159 86" stroke="black" stroke-width="2" stroke-dasharray="4 4"/>
</g>
<defs>
<clipPath id="clip0_68_2">
<rect width="309" height="139" fill="white"/>
</clipPath>
</defs>
</svg>
