<svg width="389" height="176" viewBox="0 0 389 176" fill="none" xmlns="http://www.w3.org/2000/svg">
<g clip-path="url(#clip0_68_18)">
<rect width="389" height="176" fill="white"/>
<path d="M25.81 166.73L23.11 162.35H24.19L26.26 165.88H26.28L28.43 162.35H29.42L26.73 166.67V170H25.81V166.73ZM29.9105 166.2C29.9105 165.513 30.0038 164.923 30.1905 164.43C30.3771 163.93 30.6271 163.52 30.9405 163.2C31.2538 162.873 31.6171 162.633 32.0305 162.48C32.4438 162.32 32.8771 162.24 33.3305 162.24C33.7971 162.24 34.2371 162.32 34.6505 162.48C35.0705 162.633 35.4371 162.873 35.7505 163.2C36.0638 163.52 36.3138 163.93 36.5005 164.43C36.6871 164.923 36.7805 165.513 36.7805 166.2C36.7805 166.88 36.6871 167.47 36.5005 167.97C36.3205 168.47 36.0705 168.883 35.7505 169.21C35.4371 169.53 35.0705 169.77 34.6505 169.93C34.2371 170.083 33.7971 170.16 33.3305 170.16C32.8571 170.16 32.4138 170.083 32.0005 169.93C31.5871 169.77 31.2238 169.53 30.9105 169.21C30.6038 168.883 30.3605 168.47 30.1805 167.97C30.0005 167.47 29.9105 166.88 29.9105 166.2ZM33.3305 169.41C33.6905 169.41 34.0205 169.34 34.3205 169.2C34.6271 169.06 34.8871 168.857 35.1005 168.59C35.3205 168.317 35.4905 167.98 35.6105 167.58C35.7371 167.18 35.8005 166.723 35.8005 166.21C35.8005 165.683 35.7405 165.22 35.6205 164.82C35.5005 164.42 35.3305 164.083 35.1105 163.81C34.8971 163.537 34.6371 163.33 34.3305 163.19C34.0305 163.05 33.6971 162.98 33.3305 162.98C32.9705 162.98 32.6405 163.047 32.3405 163.18C32.0471 163.313 31.7905 163.517 31.5705 163.79C31.3571 164.057 31.1905 164.393 31.0705 164.8C30.9505 165.2 30.8905 165.67 30.8905 166.21C30.8905 166.73 30.9471 167.19 31.0605 167.59C31.1805 167.99 31.3471 168.327 31.5605 168.6C31.7738 168.867 32.0305 169.07 32.3305 169.21C32.6305 169.343 32.9638 169.41 33.3305 169.41ZM38.3829 162.35H39.3129V166.75C39.3129 166.923 39.3129 167.103 39.3129 167.29C39.3196 167.477 39.3362 167.657 39.3629 167.83C39.3896 168.003 39.4296 168.17 39.4829 168.33C39.5362 168.483 39.6096 168.62 39.7029 168.74C39.8829 168.967 40.1062 169.133 40.3729 169.24C40.6396 169.34 40.9496 169.39 41.3029 169.39C41.6562 169.39 41.9662 169.34 42.2329 169.24C42.5062 169.133 42.7296 168.967 42.9029 168.74C42.9962 168.62 43.0662 168.483 43.1129 168.33C43.1662 168.17 43.2029 168.003 43.2229 167.83C43.2429 167.657 43.2529 167.477 43.2529 167.29C43.2596 167.103 43.2629 166.923 43.2629 166.75V162.35H44.1829V167.45C44.1829 167.93 44.1129 168.34 43.9729 168.68C43.8329 169.02 43.6362 169.3 43.3829 169.52C43.1296 169.74 42.8229 169.9 42.4629 170C42.1096 170.1 41.7162 170.15 41.2829 170.15C40.8429 170.15 40.4429 170.1 40.0829 170C39.7296 169.9 39.4262 169.743 39.1729 169.53C38.9196 169.31 38.7229 169.03 38.5829 168.69C38.4496 168.35 38.3829 167.937 38.3829 167.45V162.35ZM46.1396 162.35H47.3296L50.7296 168.04C50.7963 168.147 50.8529 168.247 50.8996 168.34C50.9463 168.427 50.9863 168.503 51.0196 168.57C51.0529 168.65 51.0863 168.723 51.1196 168.79H51.1496V162.35H52.0296V170H50.8396L47.4496 164.32C47.3763 164.193 47.3129 164.083 47.2596 163.99C47.2129 163.897 47.1729 163.82 47.1396 163.76L47.0496 163.58H47.0296V170H46.1396V162.35ZM57.2188 162.98C56.8055 162.98 56.4422 163.06 56.1288 163.22C55.8155 163.373 55.5522 163.593 55.3388 163.88C55.1322 164.16 54.9755 164.503 54.8688 164.91C54.7622 165.31 54.7088 165.753 54.7088 166.24C54.7088 167.26 54.9155 168.043 55.3288 168.59C55.7422 169.13 56.3388 169.4 57.1188 169.4C57.8455 169.4 58.4122 169.2 58.8188 168.8C59.2255 168.4 59.4288 167.823 59.4288 167.07V166.96H57.2188V166.14H60.3388V170H59.5288V168.9H59.4888C59.3955 169.067 59.2755 169.227 59.1288 169.38C58.9888 169.533 58.8188 169.667 58.6188 169.78C58.4255 169.893 58.1988 169.983 57.9388 170.05C57.6855 170.123 57.4055 170.16 57.0988 170.16C56.6188 170.16 56.1722 170.08 55.7588 169.92C55.3455 169.76 54.9888 169.52 54.6888 169.2C54.3888 168.873 54.1522 168.463 53.9788 167.97C53.8122 167.47 53.7288 166.883 53.7288 166.21C53.7288 165.583 53.8155 165.027 53.9888 164.54C54.1688 164.047 54.4155 163.63 54.7288 163.29C55.0422 162.95 55.4122 162.69 55.8388 162.51C56.2655 162.33 56.7255 162.24 57.2188 162.24C57.6122 162.24 57.9755 162.29 58.3088 162.39C58.6422 162.483 58.9322 162.623 59.1788 162.81C59.4322 162.99 59.6388 163.213 59.7988 163.48C59.9588 163.74 60.0622 164.04 60.1088 164.38H59.1388C59.1055 164.16 59.0322 163.963 58.9188 163.79C58.8122 163.617 58.6722 163.47 58.4988 163.35C58.3322 163.23 58.1388 163.14 57.9188 163.08C57.6988 163.013 57.4655 162.98 57.2188 162.98ZM62.3701 162.35H67.2601V163.18H63.3001V165.73H66.9401V166.54H63.3001V169.17H67.3101V170H62.3701V162.35ZM71.8277 165.99C72.0543 165.99 72.261 165.963 72.4477 165.91C72.641 165.85 72.8077 165.76 72.9477 165.64C73.0877 165.52 73.1977 165.367 73.2777 165.18C73.3577 164.993 73.3977 164.77 73.3977 164.51C73.3977 164.037 73.251 163.687 72.9577 163.46C72.671 163.227 72.3077 163.11 71.8677 163.11H70.0677V165.99H71.8277ZM71.7677 166.76H70.0677V170H69.1377V162.35H71.9077C72.461 162.35 72.9543 162.463 73.3877 162.69C73.6943 162.863 73.9343 163.1 74.1077 163.4C74.2877 163.693 74.3777 164.06 74.3777 164.5C74.3777 164.86 74.3243 165.163 74.2177 165.41C74.111 165.657 73.9777 165.863 73.8177 166.03C73.6577 166.19 73.481 166.317 73.2877 166.41C73.0943 166.497 72.911 166.563 72.7377 166.61V166.63L74.4277 170H73.3477L71.7677 166.76Z" fill="black"/>
<path d="M351.967 166.2C351.967 165.513 352.06 164.923 352.247 164.43C352.434 163.93 352.684 163.52 352.997 163.2C353.31 162.873 353.674 162.633 354.087 162.48C354.5 162.32 354.934 162.24 355.387 162.24C355.854 162.24 356.294 162.32 356.707 162.48C357.127 162.633 357.494 162.873 357.807 163.2C358.12 163.52 358.37 163.93 358.557 164.43C358.744 164.923 358.837 165.513 358.837 166.2C358.837 166.88 358.744 167.47 358.557 167.97C358.377 168.47 358.127 168.883 357.807 169.21C357.494 169.53 357.127 169.77 356.707 169.93C356.294 170.083 355.854 170.16 355.387 170.16C354.914 170.16 354.47 170.083 354.057 169.93C353.644 169.77 353.28 169.53 352.967 169.21C352.66 168.883 352.417 168.47 352.237 167.97C352.057 167.47 351.967 166.88 351.967 166.2ZM355.387 169.41C355.747 169.41 356.077 169.34 356.377 169.2C356.684 169.06 356.944 168.857 357.157 168.59C357.377 168.317 357.547 167.98 357.667 167.58C357.794 167.18 357.857 166.723 357.857 166.21C357.857 165.683 357.797 165.22 357.677 164.82C357.557 164.42 357.387 164.083 357.167 163.81C356.954 163.537 356.694 163.33 356.387 163.19C356.087 163.05 355.754 162.98 355.387 162.98C355.027 162.98 354.697 163.047 354.397 163.18C354.104 163.313 353.847 163.517 353.627 163.79C353.414 164.057 353.247 164.393 353.127 164.8C353.007 165.2 352.947 165.67 352.947 166.21C352.947 166.73 353.004 167.19 353.117 167.59C353.237 167.99 353.404 168.327 353.617 168.6C353.83 168.867 354.087 169.07 354.387 169.21C354.687 169.343 355.02 169.41 355.387 169.41ZM360.56 162.35H361.49V169.17H365.29V170H360.56V162.35ZM366.585 162.35H368.935C369.455 162.35 369.942 162.417 370.395 162.55C370.848 162.683 371.238 162.9 371.565 163.2C371.898 163.493 372.158 163.877 372.345 164.35C372.538 164.823 372.635 165.4 372.635 166.08C372.635 166.753 372.545 167.337 372.365 167.83C372.192 168.323 371.945 168.73 371.625 169.05C371.305 169.37 370.925 169.61 370.485 169.77C370.045 169.923 369.565 170 369.045 170H366.585V162.35ZM368.935 169.2C369.342 169.2 369.712 169.147 370.045 169.04C370.378 168.927 370.665 168.747 370.905 168.5C371.145 168.253 371.332 167.933 371.465 167.54C371.598 167.147 371.665 166.67 371.665 166.11C371.665 165.577 371.598 165.123 371.465 164.75C371.332 164.37 371.145 164.063 370.905 163.83C370.672 163.59 370.392 163.417 370.065 163.31C369.738 163.203 369.382 163.15 368.995 163.15H367.515V169.2H368.935ZM374.349 162.35H379.239V163.18H375.279V165.73H378.919V166.54H375.279V169.17H379.289V170H374.349V162.35ZM383.806 165.99C384.033 165.99 384.24 165.963 384.426 165.91C384.62 165.85 384.786 165.76 384.926 165.64C385.066 165.52 385.176 165.367 385.256 165.18C385.336 164.993 385.376 164.77 385.376 164.51C385.376 164.037 385.23 163.687 384.936 163.46C384.65 163.227 384.286 163.11 383.846 163.11H382.046V165.99H383.806ZM383.746 166.76H382.046V170H381.116V162.35H383.886C384.44 162.35 384.933 162.463 385.366 162.69C385.673 162.863 385.913 163.1 386.086 163.4C386.266 163.693 386.356 164.06 386.356 164.5C386.356 164.86 386.303 165.163 386.196 165.41C386.09 165.657 385.956 165.863 385.796 166.03C385.636 166.19 385.46 166.317 385.266 166.41C385.073 166.497 384.89 166.563 384.716 166.61V166.63L386.406 170H385.326L383.746 166.76Z" fill="black"/>
<path d="M6.181 136.609C6.12233 136.272 5.97567 136.004 5.741 135.806C5.50633 135.601 5.18 135.498 4.762 135.498C4.39533 135.498 4.08733 135.586 3.838 135.762C3.596 135.938 3.39433 136.18 3.233 136.488C3.079 136.796 2.96533 137.159 2.892 137.577C2.81867 137.988 2.77467 138.428 2.76 138.897H2.804C2.99467 138.552 3.26967 138.277 3.629 138.072C3.98833 137.867 4.399 137.764 4.861 137.764C5.169 137.764 5.46967 137.815 5.763 137.918C6.06367 138.013 6.33133 138.167 6.566 138.38C6.80067 138.593 6.99133 138.864 7.138 139.194C7.28467 139.517 7.358 139.909 7.358 140.371C7.358 140.774 7.292 141.148 7.16 141.493C7.03533 141.83 6.852 142.124 6.61 142.373C6.37533 142.622 6.08567 142.817 5.741 142.956C5.40367 143.095 5.02233 143.165 4.597 143.165C4.23033 143.165 3.87467 143.11 3.53 143C3.19267 142.897 2.892 142.707 2.628 142.428C2.364 142.149 2.15133 141.764 1.99 141.273C1.836 140.782 1.759 140.155 1.759 139.392C1.759 137.845 2.00467 136.682 2.496 135.905C2.98733 135.12 3.74267 134.728 4.762 134.728C5.49533 134.728 6.05633 134.893 6.445 135.223C6.841 135.553 7.06833 136.015 7.127 136.609H6.181ZM4.608 142.329C4.81333 142.329 5.01867 142.292 5.224 142.219C5.42933 142.146 5.61267 142.036 5.774 141.889C5.94267 141.735 6.07467 141.541 6.17 141.306C6.27267 141.071 6.324 140.789 6.324 140.459C6.324 140.158 6.28 139.894 6.192 139.667C6.104 139.432 5.983 139.238 5.829 139.084C5.675 138.93 5.49167 138.813 5.279 138.732C5.07367 138.651 4.85 138.611 4.608 138.611C4.35867 138.611 4.12767 138.648 3.915 138.721C3.70967 138.794 3.53 138.908 3.376 139.062C3.222 139.216 3.101 139.41 3.013 139.645C2.93233 139.872 2.892 140.144 2.892 140.459C2.892 140.789 2.93967 141.071 3.035 141.306C3.13767 141.541 3.266 141.735 3.42 141.889C3.58133 142.036 3.76467 142.146 3.97 142.219C4.17533 142.292 4.388 142.329 4.608 142.329ZM8.47003 141.658H9.81203V143H8.47003V141.658ZM10.9328 138.952C10.9328 138.241 11.0025 137.621 11.1418 137.093C11.2812 136.565 11.4755 136.125 11.7248 135.773C11.9815 135.421 12.2895 135.161 12.6488 134.992C13.0082 134.816 13.4078 134.728 13.8478 134.728C14.2952 134.728 14.6985 134.816 15.0578 134.992C15.4172 135.161 15.7252 135.421 15.9818 135.773C16.2385 136.125 16.4365 136.565 16.5758 137.093C16.7152 137.621 16.7848 138.241 16.7848 138.952C16.7848 139.656 16.7152 140.272 16.5758 140.8C16.4365 141.328 16.2385 141.768 15.9818 142.12C15.7325 142.472 15.4245 142.736 15.0578 142.912C14.6985 143.088 14.2952 143.176 13.8478 143.176C12.9458 143.176 12.2345 142.828 11.7138 142.131C11.1932 141.427 10.9328 140.367 10.9328 138.952ZM13.8478 142.362C14.4198 142.362 14.8745 142.076 15.2118 141.504C15.5492 140.932 15.7178 140.089 15.7178 138.974C15.7178 137.837 15.5528 136.983 15.2228 136.411C14.8928 135.839 14.4345 135.553 13.8478 135.553C13.2758 135.553 12.8248 135.832 12.4948 136.389C12.1648 136.946 11.9998 137.808 11.9998 138.974C11.9998 140.111 12.1612 140.961 12.4838 141.526C12.8065 142.083 13.2612 142.362 13.8478 142.362Z" fill="black"/>
<path d="M183.674 162.35H185.084L187.024 167.83C187.084 168.003 187.134 168.15 187.174 168.27C187.214 168.39 187.25 168.493 187.284 168.58C187.31 168.68 187.337 168.763 187.364 168.83H187.384C187.404 168.763 187.43 168.68 187.464 168.58C187.49 168.493 187.524 168.39 187.564 168.27C187.61 168.15 187.664 168.003 187.724 167.83L189.694 162.35H191.094V170H190.144V163.43H190.114C190.087 163.51 190.054 163.61 190.014 163.73C189.98 163.83 189.937 163.957 189.884 164.11C189.837 164.257 189.777 164.43 189.704 164.63L187.774 170H186.894L185.014 164.63C184.94 164.43 184.877 164.257 184.824 164.11C184.777 163.957 184.737 163.83 184.704 163.73C184.664 163.61 184.63 163.51 184.604 163.43H184.574V170H183.674V162.35ZM193.186 162.35H194.116V170H193.186V162.35ZM196.203 162.35H198.553C199.073 162.35 199.56 162.417 200.013 162.55C200.466 162.683 200.856 162.9 201.183 163.2C201.516 163.493 201.776 163.877 201.963 164.35C202.156 164.823 202.253 165.4 202.253 166.08C202.253 166.753 202.163 167.337 201.983 167.83C201.81 168.323 201.563 168.73 201.243 169.05C200.923 169.37 200.543 169.61 200.103 169.77C199.663 169.923 199.183 170 198.663 170H196.203V162.35ZM198.553 169.2C198.96 169.2 199.33 169.147 199.663 169.04C199.996 168.927 200.283 168.747 200.523 168.5C200.763 168.253 200.95 167.933 201.083 167.54C201.216 167.147 201.283 166.67 201.283 166.11C201.283 165.577 201.216 165.123 201.083 164.75C200.95 164.37 200.763 164.063 200.523 163.83C200.29 163.59 200.01 163.417 199.683 163.31C199.356 163.203 199 163.15 198.613 163.15H197.133V169.2H198.553ZM203.967 162.35H206.317C206.837 162.35 207.323 162.417 207.777 162.55C208.23 162.683 208.62 162.9 208.947 163.2C209.28 163.493 209.54 163.877 209.727 164.35C209.92 164.823 210.017 165.4 210.017 166.08C210.017 166.753 209.927 167.337 209.747 167.83C209.573 168.323 209.327 168.73 209.007 169.05C208.687 169.37 208.307 169.61 207.867 169.77C207.427 169.923 206.947 170 206.427 170H203.967V162.35ZM206.317 169.2C206.723 169.2 207.093 169.147 207.427 169.04C207.76 168.927 208.047 168.747 208.287 168.5C208.527 168.253 208.713 167.933 208.847 167.54C208.98 167.147 209.047 166.67 209.047 166.11C209.047 165.577 208.98 165.123 208.847 164.75C208.713 164.37 208.527 164.063 208.287 163.83C208.053 163.59 207.773 163.417 207.447 163.31C207.12 163.203 206.763 163.15 206.377 163.15H204.897V169.2H206.317ZM211.73 162.35H212.66V169.17H216.46V170H211.73V162.35ZM217.756 162.35H222.646V163.18H218.686V165.73H222.326V166.54H218.686V169.17H222.696V170H217.756V162.35ZM229.848 163.28C229.841 163.293 229.828 163.33 229.808 163.39C229.795 163.45 229.771 163.527 229.738 163.62C229.711 163.707 229.681 163.803 229.648 163.91C229.615 164.017 229.578 164.123 229.538 164.23L228.588 166.97H231.128L230.168 164.23C230.128 164.117 230.088 164.003 230.048 163.89C230.015 163.777 229.985 163.673 229.958 163.58C229.925 163.473 229.895 163.373 229.868 163.28H229.848ZM231.388 167.72H228.328L227.538 170H226.608L229.328 162.35H230.428L233.178 170H232.188L231.388 167.72ZM237.487 162.98C237.074 162.98 236.711 163.06 236.397 163.22C236.084 163.373 235.821 163.593 235.607 163.88C235.401 164.16 235.244 164.503 235.137 164.91C235.031 165.31 234.977 165.753 234.977 166.24C234.977 167.26 235.184 168.043 235.597 168.59C236.011 169.13 236.607 169.4 237.387 169.4C238.114 169.4 238.681 169.2 239.087 168.8C239.494 168.4 239.697 167.823 239.697 167.07V166.96H237.487V166.14H240.607V170H239.797V168.9H239.757C239.664 169.067 239.544 169.227 239.397 169.38C239.257 169.533 239.087 169.667 238.887 169.78C238.694 169.893 238.467 169.983 238.207 170.05C237.954 170.123 237.674 170.16 237.367 170.16C236.887 170.16 236.441 170.08 236.027 169.92C235.614 169.76 235.257 169.52 234.957 169.2C234.657 168.873 234.421 168.463 234.247 167.97C234.081 167.47 233.997 166.883 233.997 166.21C233.997 165.583 234.084 165.027 234.257 164.54C234.437 164.047 234.684 163.63 234.997 163.29C235.311 162.95 235.681 162.69 236.107 162.51C236.534 162.33 236.994 162.24 237.487 162.24C237.881 162.24 238.244 162.29 238.577 162.39C238.911 162.483 239.201 162.623 239.447 162.81C239.701 162.99 239.907 163.213 240.067 163.48C240.227 163.74 240.331 164.04 240.377 164.38H239.407C239.374 164.16 239.301 163.963 239.187 163.79C239.081 163.617 238.941 163.47 238.767 163.35C238.601 163.23 238.407 163.14 238.187 163.08C237.967 163.013 237.734 162.98 237.487 162.98ZM242.639 162.35H247.529V163.18H243.569V165.73H247.209V166.54H243.569V169.17H247.579V170H242.639V162.35Z" fill="black"/>
<path d="M181.573 11H180.643V3.35H181.573V6.72H185.583V3.35H186.513V11H185.583V7.55H181.573V11ZM191.192 4.28C191.185 4.29333 191.172 4.33 191.152 4.39C191.138 4.45 191.115 4.52667 191.082 4.62C191.055 4.70667 191.025 4.80333 190.992 4.91C190.958 5.01667 190.922 5.12333 190.882 5.23L189.932 7.97H192.472L191.512 5.23C191.472 5.11667 191.432 5.00333 191.392 4.89C191.358 4.77667 191.328 4.67333 191.302 4.58C191.268 4.47333 191.238 4.37333 191.212 4.28H191.192ZM192.732 8.72H189.672L188.882 11H187.952L190.672 3.35H191.772L194.522 11H193.532L192.732 8.72ZM196.885 8.08V11H195.955V3.35H198.255C198.622 3.35 198.965 3.39667 199.285 3.49C199.612 3.57667 199.892 3.71667 200.125 3.91C200.358 4.09667 200.542 4.34 200.675 4.64C200.815 4.93333 200.885 5.28667 200.885 5.7C200.885 6.10667 200.815 6.46 200.675 6.76C200.542 7.05333 200.355 7.3 200.115 7.5C199.875 7.69333 199.588 7.84 199.255 7.94C198.928 8.03333 198.568 8.08 198.175 8.08H196.885ZM198.175 7.33C198.735 7.33 199.165 7.19667 199.465 6.93C199.772 6.65667 199.925 6.24667 199.925 5.7C199.925 5.12667 199.772 4.71667 199.465 4.47C199.165 4.22333 198.745 4.1 198.205 4.1H196.885V7.33H198.175ZM203.272 8.08V11H202.342V3.35H204.642C205.008 3.35 205.352 3.39667 205.672 3.49C205.998 3.57667 206.278 3.71667 206.512 3.91C206.745 4.09667 206.928 4.34 207.062 4.64C207.202 4.93333 207.272 5.28667 207.272 5.7C207.272 6.10667 207.202 6.46 207.062 6.76C206.928 7.05333 206.742 7.3 206.502 7.5C206.262 7.69333 205.975 7.84 205.642 7.94C205.315 8.03333 204.955 8.08 204.562 8.08H203.272ZM204.562 7.33C205.122 7.33 205.552 7.19667 205.852 6.93C206.158 6.65667 206.312 6.24667 206.312 5.7C206.312 5.12667 206.158 4.71667 205.852 4.47C205.552 4.22333 205.132 4.1 204.592 4.1H203.272V7.33H204.562ZM208.728 3.35H209.658V11H208.728V3.35ZM211.746 3.35H216.636V4.18H212.676V6.73H216.316V7.54H212.676V10.17H216.686V11H211.746V3.35ZM221.204 6.99C221.43 6.99 221.637 6.96333 221.824 6.91C222.017 6.85 222.184 6.76 222.324 6.64C222.464 6.52 222.574 6.36667 222.654 6.18C222.734 5.99333 222.774 5.77 222.774 5.51C222.774 5.03667 222.627 4.68667 222.334 4.46C222.047 4.22667 221.684 4.11 221.244 4.11H219.444V6.99H221.204ZM221.144 7.76H219.444V11H218.514V3.35H221.284C221.837 3.35 222.33 3.46333 222.764 3.69C223.07 3.86333 223.31 4.1 223.484 4.4C223.664 4.69333 223.754 5.06 223.754 5.5C223.754 5.86 223.7 6.16333 223.594 6.41C223.487 6.65667 223.354 6.86333 223.194 7.03C223.034 7.19 222.857 7.31667 222.664 7.41C222.47 7.49667 222.287 7.56333 222.114 7.61V7.63L223.804 11H222.724L221.144 7.76Z" fill="black"/>
<path d="M203.135 109L226.79 96.7037L248.626 87.4815L269.552 72.1111L290.477 56.1259L312.313 47.5185L334.149 39.5259L355.074 34.6074L376 26" stroke="black" stroke-width="2"/>
<path d="M6.181 74.609C6.12233 74.2717 5.97567 74.004 5.741 73.806C5.50633 73.6007 5.18 73.498 4.762 73.498C4.39533 73.498 4.08733 73.586 3.838 73.762C3.596 73.938 3.39433 74.18 3.233 74.488C3.079 74.796 2.96533 75.159 2.892 75.577C2.81867 75.9877 2.77467 76.4277 2.76 76.897H2.804C2.99467 76.5523 3.26967 76.2773 3.629 76.072C3.98833 75.8667 4.399 75.764 4.861 75.764C5.169 75.764 5.46967 75.8153 5.763 75.918C6.06367 76.0133 6.33133 76.1673 6.566 76.38C6.80067 76.5927 6.99133 76.864 7.138 77.194C7.28467 77.5167 7.358 77.909 7.358 78.371C7.358 78.7743 7.292 79.1483 7.16 79.493C7.03533 79.8303 6.852 80.1237 6.61 80.373C6.37533 80.6223 6.08567 80.8167 5.741 80.956C5.40367 81.0953 5.02233 81.165 4.597 81.165C4.23033 81.165 3.87467 81.11 3.53 81C3.19267 80.8973 2.892 80.7067 2.628 80.428C2.364 80.1493 2.15133 79.7643 1.99 79.273C1.836 78.7817 1.759 78.1547 1.759 77.392C1.759 75.8447 2.00467 74.6823 2.496 73.905C2.98733 73.1203 3.74267 72.728 4.762 72.728C5.49533 72.728 6.05633 72.893 6.445 73.223C6.841 73.553 7.06833 74.015 7.127 74.609H6.181ZM4.608 80.329C4.81333 80.329 5.01867 80.2923 5.224 80.219C5.42933 80.1457 5.61267 80.0357 5.774 79.889C5.94267 79.735 6.07467 79.5407 6.17 79.306C6.27267 79.0713 6.324 78.789 6.324 78.459C6.324 78.1583 6.28 77.8943 6.192 77.667C6.104 77.4323 5.983 77.238 5.829 77.084C5.675 76.93 5.49167 76.8127 5.279 76.732C5.07367 76.6513 4.85 76.611 4.608 76.611C4.35867 76.611 4.12767 76.6477 3.915 76.721C3.70967 76.7943 3.53 76.908 3.376 77.062C3.222 77.216 3.101 77.4103 3.013 77.645C2.93233 77.8723 2.892 78.1437 2.892 78.459C2.892 78.789 2.93967 79.0713 3.035 79.306C3.13767 79.5407 3.266 79.735 3.42 79.889C3.58133 80.0357 3.76467 80.1457 3.97 80.219C4.17533 80.2923 4.388 80.329 4.608 80.329ZM8.47003 79.658H9.81203V81H8.47003V79.658ZM15.5131 78.393C15.5131 78.085 15.4691 77.8137 15.3811 77.579C15.2931 77.337 15.1721 77.1353 15.0181 76.974C14.8641 76.8127 14.6808 76.6917 14.4681 76.611C14.2628 76.523 14.0391 76.479 13.7971 76.479C13.4598 76.479 13.1628 76.5413 12.9061 76.666C12.6495 76.7833 12.4441 76.9593 12.2901 77.194H11.4321L11.7841 72.849H16.1181V73.707H12.6201L12.4111 76.303H12.4331C12.5798 76.1343 12.7851 75.9803 13.0491 75.841C13.3205 75.7017 13.6431 75.632 14.0171 75.632C14.3325 75.632 14.6405 75.6833 14.9411 75.786C15.2491 75.8887 15.5205 76.0537 15.7551 76.281C15.9971 76.501 16.1878 76.7833 16.3271 77.128C16.4738 77.4727 16.5471 77.887 16.5471 78.371C16.5471 78.7963 16.4811 79.1813 16.3491 79.526C16.2171 79.8707 16.0301 80.164 15.7881 80.406C15.5461 80.648 15.2528 80.835 14.9081 80.967C14.5635 81.099 14.1748 81.165 13.7421 81.165C13.2875 81.165 12.8988 81.099 12.5761 80.967C12.2535 80.8277 11.9895 80.6517 11.7841 80.439C11.5788 80.219 11.4248 79.9733 11.3221 79.702C11.2268 79.4307 11.1681 79.1557 11.1461 78.877H12.1471C12.1838 79.3903 12.3488 79.7607 12.6421 79.988C12.9355 80.2153 13.3205 80.329 13.7971 80.329C14.0025 80.329 14.2078 80.2923 14.4131 80.219C14.6185 80.1457 14.8018 80.032 14.9631 79.878C15.1318 79.7167 15.2638 79.515 15.3591 79.273C15.4618 79.0237 15.5131 78.7303 15.5131 78.393Z" fill="black"/>
<path d="M5.433 11.74H1.407V10.849H6.599V11.498L3.189 19H2.133L5.433 11.74ZM6.97687 17.658H8.31887V19H6.97687V17.658ZM9.43966 14.952C9.43966 14.2407 9.50933 13.621 9.64866 13.093C9.788 12.565 9.98233 12.125 10.2317 11.773C10.4883 11.421 10.7963 11.1607 11.1557 10.992C11.515 10.816 11.9147 10.728 12.3547 10.728C12.802 10.728 13.2053 10.816 13.5647 10.992C13.924 11.1607 14.232 11.421 14.4887 11.773C14.7453 12.125 14.9433 12.565 15.0827 13.093C15.222 13.621 15.2917 14.2407 15.2917 14.952C15.2917 15.656 15.222 16.272 15.0827 16.8C14.9433 17.328 14.7453 17.768 14.4887 18.12C14.2393 18.472 13.9313 18.736 13.5647 18.912C13.2053 19.088 12.802 19.176 12.3547 19.176C11.4527 19.176 10.7413 18.8277 10.2207 18.131C9.7 17.427 9.43966 16.3673 9.43966 14.952ZM12.3547 18.362C12.9267 18.362 13.3813 18.076 13.7187 17.504C14.056 16.932 14.2247 16.0887 14.2247 14.974C14.2247 13.8373 14.0597 12.983 13.7297 12.411C13.3997 11.839 12.9413 11.553 12.3547 11.553C11.7827 11.553 11.3317 11.8317 11.0017 12.389C10.6717 12.9463 10.5067 13.808 10.5067 14.974C10.5067 16.1107 10.668 16.9613 10.9907 17.526C11.3133 18.0833 11.768 18.362 12.3547 18.362Z" fill="black"/>
<path d="M23 155H386" stroke="black" stroke-width="0.5"/>
<path d="M23 146H1" stroke="black" stroke-width="0.5"/>
<path d="M23 24H1" stroke="black" stroke-width="0.5"/>
<path d="M23 85H1" stroke="black" stroke-width="0.5"/>
<path d="M200 18L197.113 23H202.887L200 18ZM200 42H200.5V22.5H200H199.5V42H200Z" fill="black"/>
<path d="M52.5 145.5L201.5 110" stroke="black" stroke-width="2" stroke-dasharray="4 4"/>
</g>
<defs>
<clipPath id="clip0_68_18">
<rect width="389" height="176" fill="white"/>
</clipPath>
</defs>
</svg>
