<svg width="309" height="163" viewBox="0 0 309 163" fill="none" xmlns="http://www.w3.org/2000/svg">
<g clip-path="url(#clip0_61_94)">
<rect width="309" height="163" fill="white"/>
<path d="M11.81 151.73L9.11 147.35H10.19L12.26 150.88H12.28L14.43 147.35H15.42L12.73 151.67V155H11.81V151.73ZM15.9105 151.2C15.9105 150.513 16.0038 149.923 16.1905 149.43C16.3771 148.93 16.6271 148.52 16.9405 148.2C17.2538 147.873 17.6171 147.633 18.0305 147.48C18.4438 147.32 18.8771 147.24 19.3305 147.24C19.7971 147.24 20.2371 147.32 20.6505 147.48C21.0705 147.633 21.4371 147.873 21.7505 148.2C22.0638 148.52 22.3138 148.93 22.5005 149.43C22.6871 149.923 22.7805 150.513 22.7805 151.2C22.7805 151.88 22.6871 152.47 22.5005 152.97C22.3205 153.47 22.0705 153.883 21.7505 154.21C21.4371 154.53 21.0705 154.77 20.6505 154.93C20.2371 155.083 19.7971 155.16 19.3305 155.16C18.8571 155.16 18.4138 155.083 18.0005 154.93C17.5871 154.77 17.2238 154.53 16.9105 154.21C16.6038 153.883 16.3605 153.47 16.1805 152.97C16.0005 152.47 15.9105 151.88 15.9105 151.2ZM19.3305 154.41C19.6905 154.41 20.0205 154.34 20.3205 154.2C20.6271 154.06 20.8871 153.857 21.1005 153.59C21.3205 153.317 21.4905 152.98 21.6105 152.58C21.7371 152.18 21.8005 151.723 21.8005 151.21C21.8005 150.683 21.7405 150.22 21.6205 149.82C21.5005 149.42 21.3305 149.083 21.1105 148.81C20.8971 148.537 20.6371 148.33 20.3305 148.19C20.0305 148.05 19.6971 147.98 19.3305 147.98C18.9705 147.98 18.6405 148.047 18.3405 148.18C18.0471 148.313 17.7905 148.517 17.5705 148.79C17.3571 149.057 17.1905 149.393 17.0705 149.8C16.9505 150.2 16.8905 150.67 16.8905 151.21C16.8905 151.73 16.9471 152.19 17.0605 152.59C17.1805 152.99 17.3471 153.327 17.5605 153.6C17.7738 153.867 18.0305 154.07 18.3305 154.21C18.6305 154.343 18.9638 154.41 19.3305 154.41ZM24.3829 147.35H25.3129V151.75C25.3129 151.923 25.3129 152.103 25.3129 152.29C25.3196 152.477 25.3362 152.657 25.3629 152.83C25.3896 153.003 25.4296 153.17 25.4829 153.33C25.5362 153.483 25.6096 153.62 25.7029 153.74C25.8829 153.967 26.1062 154.133 26.3729 154.24C26.6396 154.34 26.9496 154.39 27.3029 154.39C27.6562 154.39 27.9662 154.34 28.2329 154.24C28.5062 154.133 28.7296 153.967 28.9029 153.74C28.9962 153.62 29.0662 153.483 29.1129 153.33C29.1662 153.17 29.2029 153.003 29.2229 152.83C29.2429 152.657 29.2529 152.477 29.2529 152.29C29.2596 152.103 29.2629 151.923 29.2629 151.75V147.35H30.1829V152.45C30.1829 152.93 30.1129 153.34 29.9729 153.68C29.8329 154.02 29.6362 154.3 29.3829 154.52C29.1296 154.74 28.8229 154.9 28.4629 155C28.1096 155.1 27.7162 155.15 27.2829 155.15C26.8429 155.15 26.4429 155.1 26.0829 155C25.7296 154.9 25.4262 154.743 25.1729 154.53C24.9196 154.31 24.7229 154.03 24.5829 153.69C24.4496 153.35 24.3829 152.937 24.3829 152.45V147.35ZM32.1396 147.35H33.3296L36.7296 153.04C36.7963 153.147 36.8529 153.247 36.8996 153.34C36.9463 153.427 36.9863 153.503 37.0196 153.57C37.0529 153.65 37.0863 153.723 37.1196 153.79H37.1496V147.35H38.0296V155H36.8396L33.4496 149.32C33.3763 149.193 33.3129 149.083 33.2596 148.99C33.2129 148.897 33.1729 148.82 33.1396 148.76L33.0496 148.58H33.0296V155H32.1396V147.35ZM43.2188 147.98C42.8055 147.98 42.4422 148.06 42.1288 148.22C41.8155 148.373 41.5522 148.593 41.3388 148.88C41.1322 149.16 40.9755 149.503 40.8688 149.91C40.7622 150.31 40.7088 150.753 40.7088 151.24C40.7088 152.26 40.9155 153.043 41.3288 153.59C41.7422 154.13 42.3388 154.4 43.1188 154.4C43.8455 154.4 44.4122 154.2 44.8188 153.8C45.2255 153.4 45.4288 152.823 45.4288 152.07V151.96H43.2188V151.14H46.3388V155H45.5288V153.9H45.4888C45.3955 154.067 45.2755 154.227 45.1288 154.38C44.9888 154.533 44.8188 154.667 44.6188 154.78C44.4255 154.893 44.1988 154.983 43.9388 155.05C43.6855 155.123 43.4055 155.16 43.0988 155.16C42.6188 155.16 42.1722 155.08 41.7588 154.92C41.3455 154.76 40.9888 154.52 40.6888 154.2C40.3888 153.873 40.1522 153.463 39.9788 152.97C39.8122 152.47 39.7288 151.883 39.7288 151.21C39.7288 150.583 39.8155 150.027 39.9888 149.54C40.1688 149.047 40.4155 148.63 40.7288 148.29C41.0422 147.95 41.4122 147.69 41.8388 147.51C42.2655 147.33 42.7255 147.24 43.2188 147.24C43.6122 147.24 43.9755 147.29 44.3088 147.39C44.6422 147.483 44.9322 147.623 45.1788 147.81C45.4322 147.99 45.6388 148.213 45.7988 148.48C45.9588 148.74 46.0622 149.04 46.1088 149.38H45.1388C45.1055 149.16 45.0322 148.963 44.9188 148.79C44.8122 148.617 44.6722 148.47 44.4988 148.35C44.3322 148.23 44.1388 148.14 43.9188 148.08C43.6988 148.013 43.4655 147.98 43.2188 147.98ZM48.3701 147.35H53.2601V148.18H49.3001V150.73H52.9401V151.54H49.3001V154.17H53.3101V155H48.3701V147.35ZM57.8277 150.99C58.0543 150.99 58.261 150.963 58.4477 150.91C58.641 150.85 58.8077 150.76 58.9477 150.64C59.0877 150.52 59.1977 150.367 59.2777 150.18C59.3577 149.993 59.3977 149.77 59.3977 149.51C59.3977 149.037 59.251 148.687 58.9577 148.46C58.671 148.227 58.3077 148.11 57.8677 148.11H56.0677V150.99H57.8277ZM57.7677 151.76H56.0677V155H55.1377V147.35H57.9077C58.461 147.35 58.9543 147.463 59.3877 147.69C59.6943 147.863 59.9343 148.1 60.1077 148.4C60.2877 148.693 60.3777 149.06 60.3777 149.5C60.3777 149.86 60.3243 150.163 60.2177 150.41C60.111 150.657 59.9777 150.863 59.8177 151.03C59.6577 151.19 59.481 151.317 59.2877 151.41C59.0943 151.497 58.911 151.563 58.7377 151.61V151.63L60.4277 155H59.3477L57.7677 151.76Z" fill="black"/>
<path d="M264.967 151.2C264.967 150.513 265.06 149.923 265.247 149.43C265.434 148.93 265.684 148.52 265.997 148.2C266.31 147.873 266.674 147.633 267.087 147.48C267.5 147.32 267.934 147.24 268.387 147.24C268.854 147.24 269.294 147.32 269.707 147.48C270.127 147.633 270.494 147.873 270.807 148.2C271.12 148.52 271.37 148.93 271.557 149.43C271.744 149.923 271.837 150.513 271.837 151.2C271.837 151.88 271.744 152.47 271.557 152.97C271.377 153.47 271.127 153.883 270.807 154.21C270.494 154.53 270.127 154.77 269.707 154.93C269.294 155.083 268.854 155.16 268.387 155.16C267.914 155.16 267.47 155.083 267.057 154.93C266.644 154.77 266.28 154.53 265.967 154.21C265.66 153.883 265.417 153.47 265.237 152.97C265.057 152.47 264.967 151.88 264.967 151.2ZM268.387 154.41C268.747 154.41 269.077 154.34 269.377 154.2C269.684 154.06 269.944 153.857 270.157 153.59C270.377 153.317 270.547 152.98 270.667 152.58C270.794 152.18 270.857 151.723 270.857 151.21C270.857 150.683 270.797 150.22 270.677 149.82C270.557 149.42 270.387 149.083 270.167 148.81C269.954 148.537 269.694 148.33 269.387 148.19C269.087 148.05 268.754 147.98 268.387 147.98C268.027 147.98 267.697 148.047 267.397 148.18C267.104 148.313 266.847 148.517 266.627 148.79C266.414 149.057 266.247 149.393 266.127 149.8C266.007 150.2 265.947 150.67 265.947 151.21C265.947 151.73 266.004 152.19 266.117 152.59C266.237 152.99 266.404 153.327 266.617 153.6C266.83 153.867 267.087 154.07 267.387 154.21C267.687 154.343 268.02 154.41 268.387 154.41ZM273.56 147.35H274.49V154.17H278.29V155H273.56V147.35ZM279.585 147.35H281.935C282.455 147.35 282.942 147.417 283.395 147.55C283.848 147.683 284.238 147.9 284.565 148.2C284.898 148.493 285.158 148.877 285.345 149.35C285.538 149.823 285.635 150.4 285.635 151.08C285.635 151.753 285.545 152.337 285.365 152.83C285.192 153.323 284.945 153.73 284.625 154.05C284.305 154.37 283.925 154.61 283.485 154.77C283.045 154.923 282.565 155 282.045 155H279.585V147.35ZM281.935 154.2C282.342 154.2 282.712 154.147 283.045 154.04C283.378 153.927 283.665 153.747 283.905 153.5C284.145 153.253 284.332 152.933 284.465 152.54C284.598 152.147 284.665 151.67 284.665 151.11C284.665 150.577 284.598 150.123 284.465 149.75C284.332 149.37 284.145 149.063 283.905 148.83C283.672 148.59 283.392 148.417 283.065 148.31C282.738 148.203 282.382 148.15 281.995 148.15H280.515V154.2H281.935ZM287.349 147.35H292.239V148.18H288.279V150.73H291.919V151.54H288.279V154.17H292.289V155H287.349V147.35ZM296.806 150.99C297.033 150.99 297.24 150.963 297.426 150.91C297.62 150.85 297.786 150.76 297.926 150.64C298.066 150.52 298.176 150.367 298.256 150.18C298.336 149.993 298.376 149.77 298.376 149.51C298.376 149.037 298.23 148.687 297.936 148.46C297.65 148.227 297.286 148.11 296.846 148.11H295.046V150.99H296.806ZM296.746 151.76H295.046V155H294.116V147.35H296.886C297.44 147.35 297.933 147.463 298.366 147.69C298.673 147.863 298.913 148.1 299.086 148.4C299.266 148.693 299.356 149.06 299.356 149.5C299.356 149.86 299.303 150.163 299.196 150.41C299.09 150.657 298.956 150.863 298.796 151.03C298.636 151.19 298.46 151.317 298.266 151.41C298.073 151.497 297.89 151.563 297.716 151.61V151.63L299.406 155H298.326L296.746 151.76Z" fill="black"/>
<path d="M131.174 147.35H132.584L134.524 152.83C134.584 153.003 134.634 153.15 134.674 153.27C134.714 153.39 134.75 153.493 134.784 153.58C134.81 153.68 134.837 153.763 134.864 153.83H134.884C134.904 153.763 134.93 153.68 134.964 153.58C134.99 153.493 135.024 153.39 135.064 153.27C135.11 153.15 135.164 153.003 135.224 152.83L137.194 147.35H138.594V155H137.644V148.43H137.614C137.587 148.51 137.554 148.61 137.514 148.73C137.48 148.83 137.437 148.957 137.384 149.11C137.337 149.257 137.277 149.43 137.204 149.63L135.274 155H134.394L132.514 149.63C132.44 149.43 132.377 149.257 132.324 149.11C132.277 148.957 132.237 148.83 132.204 148.73C132.164 148.61 132.13 148.51 132.104 148.43H132.074V155H131.174V147.35ZM140.686 147.35H141.616V155H140.686V147.35ZM143.703 147.35H146.053C146.573 147.35 147.06 147.417 147.513 147.55C147.966 147.683 148.356 147.9 148.683 148.2C149.016 148.493 149.276 148.877 149.463 149.35C149.656 149.823 149.753 150.4 149.753 151.08C149.753 151.753 149.663 152.337 149.483 152.83C149.31 153.323 149.063 153.73 148.743 154.05C148.423 154.37 148.043 154.61 147.603 154.77C147.163 154.923 146.683 155 146.163 155H143.703V147.35ZM146.053 154.2C146.46 154.2 146.83 154.147 147.163 154.04C147.496 153.927 147.783 153.747 148.023 153.5C148.263 153.253 148.45 152.933 148.583 152.54C148.716 152.147 148.783 151.67 148.783 151.11C148.783 150.577 148.716 150.123 148.583 149.75C148.45 149.37 148.263 149.063 148.023 148.83C147.79 148.59 147.51 148.417 147.183 148.31C146.856 148.203 146.5 148.15 146.113 148.15H144.633V154.2H146.053ZM151.467 147.35H153.817C154.337 147.35 154.823 147.417 155.277 147.55C155.73 147.683 156.12 147.9 156.447 148.2C156.78 148.493 157.04 148.877 157.227 149.35C157.42 149.823 157.517 150.4 157.517 151.08C157.517 151.753 157.427 152.337 157.247 152.83C157.073 153.323 156.827 153.73 156.507 154.05C156.187 154.37 155.807 154.61 155.367 154.77C154.927 154.923 154.447 155 153.927 155H151.467V147.35ZM153.817 154.2C154.223 154.2 154.593 154.147 154.927 154.04C155.26 153.927 155.547 153.747 155.787 153.5C156.027 153.253 156.213 152.933 156.347 152.54C156.48 152.147 156.547 151.67 156.547 151.11C156.547 150.577 156.48 150.123 156.347 149.75C156.213 149.37 156.027 149.063 155.787 148.83C155.553 148.59 155.273 148.417 154.947 148.31C154.62 148.203 154.263 148.15 153.877 148.15H152.397V154.2H153.817ZM159.23 147.35H160.16V154.17H163.96V155H159.23V147.35ZM165.256 147.35H170.146V148.18H166.186V150.73H169.826V151.54H166.186V154.17H170.196V155H165.256V147.35ZM177.348 148.28C177.341 148.293 177.328 148.33 177.308 148.39C177.295 148.45 177.271 148.527 177.238 148.62C177.211 148.707 177.181 148.803 177.148 148.91C177.115 149.017 177.078 149.123 177.038 149.23L176.088 151.97H178.628L177.668 149.23C177.628 149.117 177.588 149.003 177.548 148.89C177.515 148.777 177.485 148.673 177.458 148.58C177.425 148.473 177.395 148.373 177.368 148.28H177.348ZM178.888 152.72H175.828L175.038 155H174.108L176.828 147.35H177.928L180.678 155H179.688L178.888 152.72ZM184.987 147.98C184.574 147.98 184.211 148.06 183.897 148.22C183.584 148.373 183.321 148.593 183.107 148.88C182.901 149.16 182.744 149.503 182.637 149.91C182.531 150.31 182.477 150.753 182.477 151.24C182.477 152.26 182.684 153.043 183.097 153.59C183.511 154.13 184.107 154.4 184.887 154.4C185.614 154.4 186.181 154.2 186.587 153.8C186.994 153.4 187.197 152.823 187.197 152.07V151.96H184.987V151.14H188.107V155H187.297V153.9H187.257C187.164 154.067 187.044 154.227 186.897 154.38C186.757 154.533 186.587 154.667 186.387 154.78C186.194 154.893 185.967 154.983 185.707 155.05C185.454 155.123 185.174 155.16 184.867 155.16C184.387 155.16 183.941 155.08 183.527 154.92C183.114 154.76 182.757 154.52 182.457 154.2C182.157 153.873 181.921 153.463 181.747 152.97C181.581 152.47 181.497 151.883 181.497 151.21C181.497 150.583 181.584 150.027 181.757 149.54C181.937 149.047 182.184 148.63 182.497 148.29C182.811 147.95 183.181 147.69 183.607 147.51C184.034 147.33 184.494 147.24 184.987 147.24C185.381 147.24 185.744 147.29 186.077 147.39C186.411 147.483 186.701 147.623 186.947 147.81C187.201 147.99 187.407 148.213 187.567 148.48C187.727 148.74 187.831 149.04 187.877 149.38H186.907C186.874 149.16 186.801 148.963 186.687 148.79C186.581 148.617 186.441 148.47 186.267 148.35C186.101 148.23 185.907 148.14 185.687 148.08C185.467 148.013 185.234 147.98 184.987 147.98ZM190.139 147.35H195.029V148.18H191.069V150.73H194.709V151.54H191.069V154.17H195.079V155H190.139V147.35Z" fill="black"/>
<path d="M132.073 32H131.143V24.35H132.073V27.72H136.083V24.35H137.013V32H136.083V28.55H132.073V32ZM141.692 25.28C141.685 25.2933 141.672 25.33 141.652 25.39C141.638 25.45 141.615 25.5267 141.582 25.62C141.555 25.7067 141.525 25.8033 141.492 25.91C141.458 26.0167 141.422 26.1233 141.382 26.23L140.432 28.97H142.972L142.012 26.23C141.972 26.1167 141.932 26.0033 141.892 25.89C141.858 25.7767 141.828 25.6733 141.802 25.58C141.768 25.4733 141.738 25.3733 141.712 25.28H141.692ZM143.232 29.72H140.172L139.382 32H138.452L141.172 24.35H142.272L145.022 32H144.032L143.232 29.72ZM147.385 29.08V32H146.455V24.35H148.755C149.122 24.35 149.465 24.3967 149.785 24.49C150.112 24.5767 150.392 24.7167 150.625 24.91C150.858 25.0967 151.042 25.34 151.175 25.64C151.315 25.9333 151.385 26.2867 151.385 26.7C151.385 27.1067 151.315 27.46 151.175 27.76C151.042 28.0533 150.855 28.3 150.615 28.5C150.375 28.6933 150.088 28.84 149.755 28.94C149.428 29.0333 149.068 29.08 148.675 29.08H147.385ZM148.675 28.33C149.235 28.33 149.665 28.1967 149.965 27.93C150.272 27.6567 150.425 27.2467 150.425 26.7C150.425 26.1267 150.272 25.7167 149.965 25.47C149.665 25.2233 149.245 25.1 148.705 25.1H147.385V28.33H148.675ZM153.772 29.08V32H152.842V24.35H155.142C155.508 24.35 155.852 24.3967 156.172 24.49C156.498 24.5767 156.778 24.7167 157.012 24.91C157.245 25.0967 157.428 25.34 157.562 25.64C157.702 25.9333 157.772 26.2867 157.772 26.7C157.772 27.1067 157.702 27.46 157.562 27.76C157.428 28.0533 157.242 28.3 157.002 28.5C156.762 28.6933 156.475 28.84 156.142 28.94C155.815 29.0333 155.455 29.08 155.062 29.08H153.772ZM155.062 28.33C155.622 28.33 156.052 28.1967 156.352 27.93C156.658 27.6567 156.812 27.2467 156.812 26.7C156.812 26.1267 156.658 25.7167 156.352 25.47C156.052 25.2233 155.632 25.1 155.092 25.1H153.772V28.33H155.062ZM159.228 24.35H160.158V32H159.228V24.35ZM162.246 24.35H167.136V25.18H163.176V27.73H166.816V28.54H163.176V31.17H167.186V32H162.246V24.35ZM171.704 27.99C171.93 27.99 172.137 27.9633 172.324 27.91C172.517 27.85 172.684 27.76 172.824 27.64C172.964 27.52 173.074 27.3667 173.154 27.18C173.234 26.9933 173.274 26.77 173.274 26.51C173.274 26.0367 173.127 25.6867 172.834 25.46C172.547 25.2267 172.184 25.11 171.744 25.11H169.944V27.99H171.704ZM171.644 28.76H169.944V32H169.014V24.35H171.784C172.337 24.35 172.83 24.4633 173.264 24.69C173.57 24.8633 173.81 25.1 173.984 25.4C174.164 25.6933 174.254 26.06 174.254 26.5C174.254 26.86 174.2 27.1633 174.094 27.41C173.987 27.6567 173.854 27.8633 173.694 28.03C173.534 28.19 173.357 28.3167 173.164 28.41C172.97 28.4967 172.787 28.5633 172.614 28.61V28.63L174.304 32H173.224L171.644 28.76Z" fill="black"/>
<path d="M9 142H299" stroke="black" stroke-width="0.5"/>
<path d="M151 35L148.113 40H153.887L151 35ZM151 53H151.5V39.5H151H150.5V53H151Z" fill="black"/>
<path d="M28 116C57.9221 108.5 125.662 93.8 157.247 95C196.727 96.5 239.948 93.5 284 49" stroke="black" stroke-width="2"/>
</g>
<defs>
<clipPath id="clip0_61_94">
<rect width="309" height="163" fill="white"/>
</clipPath>
</defs>
</svg>
