<svg width="309" height="150" viewBox="0 0 309 150" fill="none" xmlns="http://www.w3.org/2000/svg">
<g clip-path="url(#clip0_59_37)">
<rect width="309" height="150" fill="white"/>
<path d="M20.81 138.73L18.11 134.35H19.19L21.26 137.88H21.28L23.43 134.35H24.42L21.73 138.67V142H20.81V138.73ZM24.9105 138.2C24.9105 137.513 25.0038 136.923 25.1905 136.43C25.3771 135.93 25.6271 135.52 25.9405 135.2C26.2538 134.873 26.6171 134.633 27.0305 134.48C27.4438 134.32 27.8771 134.24 28.3305 134.24C28.7971 134.24 29.2371 134.32 29.6505 134.48C30.0705 134.633 30.4371 134.873 30.7505 135.2C31.0638 135.52 31.3138 135.93 31.5005 136.43C31.6871 136.923 31.7805 137.513 31.7805 138.2C31.7805 138.88 31.6871 139.47 31.5005 139.97C31.3205 140.47 31.0705 140.883 30.7505 141.21C30.4371 141.53 30.0705 141.77 29.6505 141.93C29.2371 142.083 28.7971 142.16 28.3305 142.16C27.8571 142.16 27.4138 142.083 27.0005 141.93C26.5871 141.77 26.2238 141.53 25.9105 141.21C25.6038 140.883 25.3605 140.47 25.1805 139.97C25.0005 139.47 24.9105 138.88 24.9105 138.2ZM28.3305 141.41C28.6905 141.41 29.0205 141.34 29.3205 141.2C29.6271 141.06 29.8871 140.857 30.1005 140.59C30.3205 140.317 30.4905 139.98 30.6105 139.58C30.7371 139.18 30.8005 138.723 30.8005 138.21C30.8005 137.683 30.7405 137.22 30.6205 136.82C30.5005 136.42 30.3305 136.083 30.1105 135.81C29.8971 135.537 29.6371 135.33 29.3305 135.19C29.0305 135.05 28.6971 134.98 28.3305 134.98C27.9705 134.98 27.6405 135.047 27.3405 135.18C27.0471 135.313 26.7905 135.517 26.5705 135.79C26.3571 136.057 26.1905 136.393 26.0705 136.8C25.9505 137.2 25.8905 137.67 25.8905 138.21C25.8905 138.73 25.9471 139.19 26.0605 139.59C26.1805 139.99 26.3471 140.327 26.5605 140.6C26.7738 140.867 27.0305 141.07 27.3305 141.21C27.6305 141.343 27.9638 141.41 28.3305 141.41ZM33.3829 134.35H34.3129V138.75C34.3129 138.923 34.3129 139.103 34.3129 139.29C34.3196 139.477 34.3362 139.657 34.3629 139.83C34.3896 140.003 34.4296 140.17 34.4829 140.33C34.5362 140.483 34.6096 140.62 34.7029 140.74C34.8829 140.967 35.1062 141.133 35.3729 141.24C35.6396 141.34 35.9496 141.39 36.3029 141.39C36.6562 141.39 36.9662 141.34 37.2329 141.24C37.5062 141.133 37.7296 140.967 37.9029 140.74C37.9962 140.62 38.0662 140.483 38.1129 140.33C38.1662 140.17 38.2029 140.003 38.2229 139.83C38.2429 139.657 38.2529 139.477 38.2529 139.29C38.2596 139.103 38.2629 138.923 38.2629 138.75V134.35H39.1829V139.45C39.1829 139.93 39.1129 140.34 38.9729 140.68C38.8329 141.02 38.6362 141.3 38.3829 141.52C38.1296 141.74 37.8229 141.9 37.4629 142C37.1096 142.1 36.7162 142.15 36.2829 142.15C35.8429 142.15 35.4429 142.1 35.0829 142C34.7296 141.9 34.4262 141.743 34.1729 141.53C33.9196 141.31 33.7229 141.03 33.5829 140.69C33.4496 140.35 33.3829 139.937 33.3829 139.45V134.35ZM41.1396 134.35H42.3296L45.7296 140.04C45.7963 140.147 45.8529 140.247 45.8996 140.34C45.9463 140.427 45.9863 140.503 46.0196 140.57C46.0529 140.65 46.0863 140.723 46.1196 140.79H46.1496V134.35H47.0296V142H45.8396L42.4496 136.32C42.3763 136.193 42.3129 136.083 42.2596 135.99C42.2129 135.897 42.1729 135.82 42.1396 135.76L42.0496 135.58H42.0296V142H41.1396V134.35ZM52.2188 134.98C51.8055 134.98 51.4422 135.06 51.1288 135.22C50.8155 135.373 50.5522 135.593 50.3388 135.88C50.1322 136.16 49.9755 136.503 49.8688 136.91C49.7622 137.31 49.7088 137.753 49.7088 138.24C49.7088 139.26 49.9155 140.043 50.3288 140.59C50.7422 141.13 51.3388 141.4 52.1188 141.4C52.8455 141.4 53.4122 141.2 53.8188 140.8C54.2255 140.4 54.4288 139.823 54.4288 139.07V138.96H52.2188V138.14H55.3388V142H54.5288V140.9H54.4888C54.3955 141.067 54.2755 141.227 54.1288 141.38C53.9888 141.533 53.8188 141.667 53.6188 141.78C53.4255 141.893 53.1988 141.983 52.9388 142.05C52.6855 142.123 52.4055 142.16 52.0988 142.16C51.6188 142.16 51.1722 142.08 50.7588 141.92C50.3455 141.76 49.9888 141.52 49.6888 141.2C49.3888 140.873 49.1522 140.463 48.9788 139.97C48.8122 139.47 48.7288 138.883 48.7288 138.21C48.7288 137.583 48.8155 137.027 48.9888 136.54C49.1688 136.047 49.4155 135.63 49.7288 135.29C50.0422 134.95 50.4122 134.69 50.8388 134.51C51.2655 134.33 51.7255 134.24 52.2188 134.24C52.6122 134.24 52.9755 134.29 53.3088 134.39C53.6422 134.483 53.9322 134.623 54.1788 134.81C54.4322 134.99 54.6388 135.213 54.7988 135.48C54.9588 135.74 55.0622 136.04 55.1088 136.38H54.1388C54.1055 136.16 54.0322 135.963 53.9188 135.79C53.8122 135.617 53.6722 135.47 53.4988 135.35C53.3322 135.23 53.1388 135.14 52.9188 135.08C52.6988 135.013 52.4655 134.98 52.2188 134.98ZM57.3701 134.35H62.2601V135.18H58.3001V137.73H61.9401V138.54H58.3001V141.17H62.3101V142H57.3701V134.35ZM66.8277 137.99C67.0543 137.99 67.261 137.963 67.4477 137.91C67.641 137.85 67.8077 137.76 67.9477 137.64C68.0877 137.52 68.1977 137.367 68.2777 137.18C68.3577 136.993 68.3977 136.77 68.3977 136.51C68.3977 136.037 68.251 135.687 67.9577 135.46C67.671 135.227 67.3077 135.11 66.8677 135.11H65.0677V137.99H66.8277ZM66.7677 138.76H65.0677V142H64.1377V134.35H66.9077C67.461 134.35 67.9543 134.463 68.3877 134.69C68.6943 134.863 68.9343 135.1 69.1077 135.4C69.2877 135.693 69.3777 136.06 69.3777 136.5C69.3777 136.86 69.3243 137.163 69.2177 137.41C69.111 137.657 68.9777 137.863 68.8177 138.03C68.6577 138.19 68.481 138.317 68.2877 138.41C68.0943 138.497 67.911 138.563 67.7377 138.61V138.63L69.4277 142H68.3477L66.7677 138.76Z" fill="black"/>
<path d="M273.967 138.2C273.967 137.513 274.06 136.923 274.247 136.43C274.434 135.93 274.684 135.52 274.997 135.2C275.31 134.873 275.674 134.633 276.087 134.48C276.5 134.32 276.934 134.24 277.387 134.24C277.854 134.24 278.294 134.32 278.707 134.48C279.127 134.633 279.494 134.873 279.807 135.2C280.12 135.52 280.37 135.93 280.557 136.43C280.744 136.923 280.837 137.513 280.837 138.2C280.837 138.88 280.744 139.47 280.557 139.97C280.377 140.47 280.127 140.883 279.807 141.21C279.494 141.53 279.127 141.77 278.707 141.93C278.294 142.083 277.854 142.16 277.387 142.16C276.914 142.16 276.47 142.083 276.057 141.93C275.644 141.77 275.28 141.53 274.967 141.21C274.66 140.883 274.417 140.47 274.237 139.97C274.057 139.47 273.967 138.88 273.967 138.2ZM277.387 141.41C277.747 141.41 278.077 141.34 278.377 141.2C278.684 141.06 278.944 140.857 279.157 140.59C279.377 140.317 279.547 139.98 279.667 139.58C279.794 139.18 279.857 138.723 279.857 138.21C279.857 137.683 279.797 137.22 279.677 136.82C279.557 136.42 279.387 136.083 279.167 135.81C278.954 135.537 278.694 135.33 278.387 135.19C278.087 135.05 277.754 134.98 277.387 134.98C277.027 134.98 276.697 135.047 276.397 135.18C276.104 135.313 275.847 135.517 275.627 135.79C275.414 136.057 275.247 136.393 275.127 136.8C275.007 137.2 274.947 137.67 274.947 138.21C274.947 138.73 275.004 139.19 275.117 139.59C275.237 139.99 275.404 140.327 275.617 140.6C275.83 140.867 276.087 141.07 276.387 141.21C276.687 141.343 277.02 141.41 277.387 141.41ZM282.56 134.35H283.49V141.17H287.29V142H282.56V134.35ZM288.585 134.35H290.935C291.455 134.35 291.942 134.417 292.395 134.55C292.848 134.683 293.238 134.9 293.565 135.2C293.898 135.493 294.158 135.877 294.345 136.35C294.538 136.823 294.635 137.4 294.635 138.08C294.635 138.753 294.545 139.337 294.365 139.83C294.192 140.323 293.945 140.73 293.625 141.05C293.305 141.37 292.925 141.61 292.485 141.77C292.045 141.923 291.565 142 291.045 142H288.585V134.35ZM290.935 141.2C291.342 141.2 291.712 141.147 292.045 141.04C292.378 140.927 292.665 140.747 292.905 140.5C293.145 140.253 293.332 139.933 293.465 139.54C293.598 139.147 293.665 138.67 293.665 138.11C293.665 137.577 293.598 137.123 293.465 136.75C293.332 136.37 293.145 136.063 292.905 135.83C292.672 135.59 292.392 135.417 292.065 135.31C291.738 135.203 291.382 135.15 290.995 135.15H289.515V141.2H290.935ZM296.349 134.35H301.239V135.18H297.279V137.73H300.919V138.54H297.279V141.17H301.289V142H296.349V134.35ZM305.806 137.99C306.033 137.99 306.24 137.963 306.426 137.91C306.62 137.85 306.786 137.76 306.926 137.64C307.066 137.52 307.176 137.367 307.256 137.18C307.336 136.993 307.376 136.77 307.376 136.51C307.376 136.037 307.23 135.687 306.936 135.46C306.65 135.227 306.286 135.11 305.846 135.11H304.046V137.99H305.806ZM305.746 138.76H304.046V142H303.116V134.35H305.886C306.44 134.35 306.933 134.463 307.366 134.69C307.673 134.863 307.913 135.1 308.086 135.4C308.266 135.693 308.356 136.06 308.356 136.5C308.356 136.86 308.303 137.163 308.196 137.41C308.09 137.657 307.956 137.863 307.796 138.03C307.636 138.19 307.46 138.317 307.266 138.41C307.073 138.497 306.89 138.563 306.716 138.61V138.63L308.406 142H307.326L305.746 138.76Z" fill="black"/>
<path d="M6.63803 111.609C6.57936 111.272 6.4327 111.004 6.19803 110.806C5.96336 110.601 5.63703 110.498 5.21903 110.498C4.85236 110.498 4.54436 110.586 4.29503 110.762C4.05303 110.938 3.85136 111.18 3.69003 111.488C3.53603 111.796 3.42236 112.159 3.34903 112.577C3.2757 112.988 3.2317 113.428 3.21703 113.897H3.26103C3.4517 113.552 3.7267 113.277 4.08603 113.072C4.44536 112.867 4.85603 112.764 5.31803 112.764C5.62603 112.764 5.9267 112.815 6.22003 112.918C6.5207 113.013 6.78837 113.167 7.02303 113.38C7.2577 113.593 7.44837 113.864 7.59503 114.194C7.7417 114.517 7.81503 114.909 7.81503 115.371C7.81503 115.774 7.74903 116.148 7.61703 116.493C7.49236 116.83 7.30903 117.124 7.06703 117.373C6.83236 117.622 6.5427 117.817 6.19803 117.956C5.8607 118.095 5.47936 118.165 5.05403 118.165C4.68736 118.165 4.3317 118.11 3.98703 118C3.6497 117.897 3.34903 117.707 3.08503 117.428C2.82103 117.149 2.60836 116.764 2.44703 116.273C2.29303 115.782 2.21603 115.155 2.21603 114.392C2.21603 112.845 2.4617 111.682 2.95303 110.905C3.44436 110.12 4.1997 109.728 5.21903 109.728C5.95236 109.728 6.51336 109.893 6.90203 110.223C7.29803 110.553 7.52536 111.015 7.58403 111.609H6.63803ZM5.06503 117.329C5.27036 117.329 5.4757 117.292 5.68103 117.219C5.88636 117.146 6.0697 117.036 6.23103 116.889C6.3997 116.735 6.5317 116.541 6.62703 116.306C6.7297 116.071 6.78103 115.789 6.78103 115.459C6.78103 115.158 6.73703 114.894 6.64903 114.667C6.56103 114.432 6.44003 114.238 6.28603 114.084C6.13203 113.93 5.9487 113.813 5.73603 113.732C5.5307 113.651 5.30703 113.611 5.06503 113.611C4.8157 113.611 4.5847 113.648 4.37203 113.721C4.1667 113.794 3.98703 113.908 3.83303 114.062C3.67903 114.216 3.55803 114.41 3.47003 114.645C3.38936 114.872 3.34903 115.144 3.34903 115.459C3.34903 115.789 3.3967 116.071 3.49203 116.306C3.5947 116.541 3.72303 116.735 3.87703 116.889C4.03836 117.036 4.2217 117.146 4.42703 117.219C4.63236 117.292 4.84503 117.329 5.06503 117.329ZM8.92706 116.658H10.2691V118H8.92706V116.658ZM11.3899 113.952C11.3899 113.241 11.4595 112.621 11.5989 112.093C11.7382 111.565 11.9325 111.125 12.1819 110.773C12.4385 110.421 12.7465 110.161 13.1059 109.992C13.4652 109.816 13.8649 109.728 14.3049 109.728C14.7522 109.728 15.1555 109.816 15.5149 109.992C15.8742 110.161 16.1822 110.421 16.4389 110.773C16.6955 111.125 16.8935 111.565 17.0329 112.093C17.1722 112.621 17.2419 113.241 17.2419 113.952C17.2419 114.656 17.1722 115.272 17.0329 115.8C16.8935 116.328 16.6955 116.768 16.4389 117.12C16.1895 117.472 15.8815 117.736 15.5149 117.912C15.1555 118.088 14.7522 118.176 14.3049 118.176C13.4029 118.176 12.6915 117.828 12.1709 117.131C11.6502 116.427 11.3899 115.367 11.3899 113.952ZM14.3049 117.362C14.8769 117.362 15.3315 117.076 15.6689 116.504C16.0062 115.932 16.1749 115.089 16.1749 113.974C16.1749 112.837 16.0099 111.983 15.6799 111.411C15.3499 110.839 14.8915 110.553 14.3049 110.553C13.7329 110.553 13.2819 110.832 12.9519 111.389C12.6219 111.946 12.4569 112.808 12.4569 113.974C12.4569 115.111 12.6182 115.961 12.9409 116.526C13.2635 117.083 13.7182 117.362 14.3049 117.362Z" fill="black"/>
<path d="M140.174 134.35H141.584L143.524 139.83C143.584 140.003 143.634 140.15 143.674 140.27C143.714 140.39 143.75 140.493 143.784 140.58C143.81 140.68 143.837 140.763 143.864 140.83H143.884C143.904 140.763 143.93 140.68 143.964 140.58C143.99 140.493 144.024 140.39 144.064 140.27C144.11 140.15 144.164 140.003 144.224 139.83L146.194 134.35H147.594V142H146.644V135.43H146.614C146.587 135.51 146.554 135.61 146.514 135.73C146.48 135.83 146.437 135.957 146.384 136.11C146.337 136.257 146.277 136.43 146.204 136.63L144.274 142H143.394L141.514 136.63C141.44 136.43 141.377 136.257 141.324 136.11C141.277 135.957 141.237 135.83 141.204 135.73C141.164 135.61 141.13 135.51 141.104 135.43H141.074V142H140.174V134.35ZM149.686 134.35H150.616V142H149.686V134.35ZM152.703 134.35H155.053C155.573 134.35 156.06 134.417 156.513 134.55C156.966 134.683 157.356 134.9 157.683 135.2C158.016 135.493 158.276 135.877 158.463 136.35C158.656 136.823 158.753 137.4 158.753 138.08C158.753 138.753 158.663 139.337 158.483 139.83C158.31 140.323 158.063 140.73 157.743 141.05C157.423 141.37 157.043 141.61 156.603 141.77C156.163 141.923 155.683 142 155.163 142H152.703V134.35ZM155.053 141.2C155.46 141.2 155.83 141.147 156.163 141.04C156.496 140.927 156.783 140.747 157.023 140.5C157.263 140.253 157.45 139.933 157.583 139.54C157.716 139.147 157.783 138.67 157.783 138.11C157.783 137.577 157.716 137.123 157.583 136.75C157.45 136.37 157.263 136.063 157.023 135.83C156.79 135.59 156.51 135.417 156.183 135.31C155.856 135.203 155.5 135.15 155.113 135.15H153.633V141.2H155.053ZM160.467 134.35H162.817C163.337 134.35 163.823 134.417 164.277 134.55C164.73 134.683 165.12 134.9 165.447 135.2C165.78 135.493 166.04 135.877 166.227 136.35C166.42 136.823 166.517 137.4 166.517 138.08C166.517 138.753 166.427 139.337 166.247 139.83C166.073 140.323 165.827 140.73 165.507 141.05C165.187 141.37 164.807 141.61 164.367 141.77C163.927 141.923 163.447 142 162.927 142H160.467V134.35ZM162.817 141.2C163.223 141.2 163.593 141.147 163.927 141.04C164.26 140.927 164.547 140.747 164.787 140.5C165.027 140.253 165.213 139.933 165.347 139.54C165.48 139.147 165.547 138.67 165.547 138.11C165.547 137.577 165.48 137.123 165.347 136.75C165.213 136.37 165.027 136.063 164.787 135.83C164.553 135.59 164.273 135.417 163.947 135.31C163.62 135.203 163.263 135.15 162.877 135.15H161.397V141.2H162.817ZM168.23 134.35H169.16V141.17H172.96V142H168.23V134.35ZM174.256 134.35H179.146V135.18H175.186V137.73H178.826V138.54H175.186V141.17H179.196V142H174.256V134.35ZM186.348 135.28C186.341 135.293 186.328 135.33 186.308 135.39C186.295 135.45 186.271 135.527 186.238 135.62C186.211 135.707 186.181 135.803 186.148 135.91C186.115 136.017 186.078 136.123 186.038 136.23L185.088 138.97H187.628L186.668 136.23C186.628 136.117 186.588 136.003 186.548 135.89C186.515 135.777 186.485 135.673 186.458 135.58C186.425 135.473 186.395 135.373 186.368 135.28H186.348ZM187.888 139.72H184.828L184.038 142H183.108L185.828 134.35H186.928L189.678 142H188.688L187.888 139.72ZM193.987 134.98C193.574 134.98 193.211 135.06 192.897 135.22C192.584 135.373 192.321 135.593 192.107 135.88C191.901 136.16 191.744 136.503 191.637 136.91C191.531 137.31 191.477 137.753 191.477 138.24C191.477 139.26 191.684 140.043 192.097 140.59C192.511 141.13 193.107 141.4 193.887 141.4C194.614 141.4 195.181 141.2 195.587 140.8C195.994 140.4 196.197 139.823 196.197 139.07V138.96H193.987V138.14H197.107V142H196.297V140.9H196.257C196.164 141.067 196.044 141.227 195.897 141.38C195.757 141.533 195.587 141.667 195.387 141.78C195.194 141.893 194.967 141.983 194.707 142.05C194.454 142.123 194.174 142.16 193.867 142.16C193.387 142.16 192.941 142.08 192.527 141.92C192.114 141.76 191.757 141.52 191.457 141.2C191.157 140.873 190.921 140.463 190.747 139.97C190.581 139.47 190.497 138.883 190.497 138.21C190.497 137.583 190.584 137.027 190.757 136.54C190.937 136.047 191.184 135.63 191.497 135.29C191.811 134.95 192.181 134.69 192.607 134.51C193.034 134.33 193.494 134.24 193.987 134.24C194.381 134.24 194.744 134.29 195.077 134.39C195.411 134.483 195.701 134.623 195.947 134.81C196.201 134.99 196.407 135.213 196.567 135.48C196.727 135.74 196.831 136.04 196.877 136.38H195.907C195.874 136.16 195.801 135.963 195.687 135.79C195.581 135.617 195.441 135.47 195.267 135.35C195.101 135.23 194.907 135.14 194.687 135.08C194.467 135.013 194.234 134.98 193.987 134.98ZM199.139 134.35H204.029V135.18H200.069V137.73H203.709V138.54H200.069V141.17H204.079V142H199.139V134.35Z" fill="black"/>
<path d="M141.073 19H140.143V11.35H141.073V14.72H145.083V11.35H146.013V19H145.083V15.55H141.073V19ZM150.692 12.28C150.685 12.2933 150.672 12.33 150.652 12.39C150.638 12.45 150.615 12.5267 150.582 12.62C150.555 12.7067 150.525 12.8033 150.492 12.91C150.458 13.0167 150.422 13.1233 150.382 13.23L149.432 15.97H151.972L151.012 13.23C150.972 13.1167 150.932 13.0033 150.892 12.89C150.858 12.7767 150.828 12.6733 150.802 12.58C150.768 12.4733 150.738 12.3733 150.712 12.28H150.692ZM152.232 16.72H149.172L148.382 19H147.452L150.172 11.35H151.272L154.022 19H153.032L152.232 16.72ZM156.385 16.08V19H155.455V11.35H157.755C158.122 11.35 158.465 11.3967 158.785 11.49C159.112 11.5767 159.392 11.7167 159.625 11.91C159.858 12.0967 160.042 12.34 160.175 12.64C160.315 12.9333 160.385 13.2867 160.385 13.7C160.385 14.1067 160.315 14.46 160.175 14.76C160.042 15.0533 159.855 15.3 159.615 15.5C159.375 15.6933 159.088 15.84 158.755 15.94C158.428 16.0333 158.068 16.08 157.675 16.08H156.385ZM157.675 15.33C158.235 15.33 158.665 15.1967 158.965 14.93C159.272 14.6567 159.425 14.2467 159.425 13.7C159.425 13.1267 159.272 12.7167 158.965 12.47C158.665 12.2233 158.245 12.1 157.705 12.1H156.385V15.33H157.675ZM162.772 16.08V19H161.842V11.35H164.142C164.508 11.35 164.852 11.3967 165.172 11.49C165.498 11.5767 165.778 11.7167 166.012 11.91C166.245 12.0967 166.428 12.34 166.562 12.64C166.702 12.9333 166.772 13.2867 166.772 13.7C166.772 14.1067 166.702 14.46 166.562 14.76C166.428 15.0533 166.242 15.3 166.002 15.5C165.762 15.6933 165.475 15.84 165.142 15.94C164.815 16.0333 164.455 16.08 164.062 16.08H162.772ZM164.062 15.33C164.622 15.33 165.052 15.1967 165.352 14.93C165.658 14.6567 165.812 14.2467 165.812 13.7C165.812 13.1267 165.658 12.7167 165.352 12.47C165.052 12.2233 164.632 12.1 164.092 12.1H162.772V15.33H164.062ZM168.228 11.35H169.158V19H168.228V11.35ZM171.246 11.35H176.136V12.18H172.176V14.73H175.816V15.54H172.176V18.17H176.186V19H171.246V11.35ZM180.704 14.99C180.93 14.99 181.137 14.9633 181.324 14.91C181.517 14.85 181.684 14.76 181.824 14.64C181.964 14.52 182.074 14.3667 182.154 14.18C182.234 13.9933 182.274 13.77 182.274 13.51C182.274 13.0367 182.127 12.6867 181.834 12.46C181.547 12.2267 181.184 12.11 180.744 12.11H178.944V14.99H180.704ZM180.644 15.76H178.944V19H178.014V11.35H180.784C181.337 11.35 181.83 11.4633 182.264 11.69C182.57 11.8633 182.81 12.1 182.984 12.4C183.164 12.6933 183.254 13.06 183.254 13.5C183.254 13.86 183.2 14.1633 183.094 14.41C182.987 14.6567 182.854 14.8633 182.694 15.03C182.534 15.19 182.357 15.3167 182.164 15.41C181.97 15.4967 181.787 15.5633 181.614 15.61V15.63L183.304 19H182.224L180.644 15.76Z" fill="black"/>
<path d="M26 42.9259L43.443 71.8148L61.6127 73.7407L78.3289 69.4074H95.7719L112.488 76.1482L129.931 83.3704L147.374 88.6667L161.91 93L180.806 83.3704L198.249 76.1482L214.966 64.1111L231.682 51.5926L249.125 44.8519L266.568 38.5926L283.284 34.7407L300 28" stroke="black" stroke-width="2"/>
<path d="M6.8851 64.609C6.82644 64.2717 6.67977 64.004 6.4451 63.806C6.21044 63.6007 5.8841 63.498 5.4661 63.498C5.09944 63.498 4.79144 63.586 4.5421 63.762C4.3001 63.938 4.09843 64.18 3.9371 64.488C3.7831 64.796 3.66943 65.159 3.5961 65.577C3.52277 65.9877 3.47877 66.4277 3.4641 66.897H3.5081C3.69877 66.5523 3.97377 66.2773 4.3331 66.072C4.69244 65.8667 5.1031 65.764 5.5651 65.764C5.8731 65.764 6.17377 65.8153 6.4671 65.918C6.76777 66.0133 7.03544 66.1673 7.2701 66.38C7.50477 66.5927 7.69544 66.864 7.8421 67.194C7.98877 67.5167 8.0621 67.909 8.0621 68.371C8.0621 68.7743 7.9961 69.1483 7.8641 69.493C7.73944 69.8303 7.5561 70.1237 7.3141 70.373C7.07944 70.6223 6.78977 70.8167 6.4451 70.956C6.10777 71.0953 5.72644 71.165 5.3011 71.165C4.93444 71.165 4.57877 71.11 4.2341 71C3.89677 70.8973 3.5961 70.7067 3.3321 70.428C3.0681 70.1493 2.85543 69.7643 2.6941 69.273C2.5401 68.7817 2.4631 68.1547 2.4631 67.392C2.4631 65.8447 2.70877 64.6823 3.2001 63.905C3.69143 63.1203 4.44677 62.728 5.4661 62.728C6.19944 62.728 6.76044 62.893 7.1491 63.223C7.5451 63.553 7.77244 64.015 7.8311 64.609H6.8851ZM5.3121 70.329C5.51743 70.329 5.72277 70.2923 5.9281 70.219C6.13344 70.1457 6.31677 70.0357 6.4781 69.889C6.64677 69.735 6.77877 69.5407 6.8741 69.306C6.97677 69.0713 7.0281 68.789 7.0281 68.459C7.0281 68.1583 6.9841 67.8943 6.8961 67.667C6.8081 67.4323 6.6871 67.238 6.5331 67.084C6.3791 66.93 6.19577 66.8127 5.9831 66.732C5.77777 66.6513 5.5541 66.611 5.3121 66.611C5.06277 66.611 4.83177 66.6477 4.6191 66.721C4.41377 66.7943 4.2341 66.908 4.0801 67.062C3.9261 67.216 3.8051 67.4103 3.7171 67.645C3.63643 67.8723 3.5961 68.1437 3.5961 68.459C3.5961 68.789 3.64377 69.0713 3.7391 69.306C3.84177 69.5407 3.9701 69.735 4.1241 69.889C4.28544 70.0357 4.46877 70.1457 4.6741 70.219C4.87943 70.2923 5.0921 70.329 5.3121 70.329ZM9.17413 69.658H10.5161V71H9.17413V69.658ZM16.2172 68.393C16.2172 68.085 16.1732 67.8137 16.0852 67.579C15.9972 67.337 15.8762 67.1353 15.7222 66.974C15.5682 66.8127 15.3849 66.6917 15.1722 66.611C14.9669 66.523 14.7432 66.479 14.5012 66.479C14.1639 66.479 13.8669 66.5413 13.6102 66.666C13.3536 66.7833 13.1482 66.9593 12.9942 67.194H12.1362L12.4882 62.849H16.8222V63.707H13.3242L13.1152 66.303H13.1372C13.2839 66.1343 13.4892 65.9803 13.7532 65.841C14.0246 65.7017 14.3472 65.632 14.7212 65.632C15.0366 65.632 15.3446 65.6833 15.6452 65.786C15.9532 65.8887 16.2246 66.0537 16.4592 66.281C16.7012 66.501 16.8919 66.7833 17.0312 67.128C17.1779 67.4727 17.2512 67.887 17.2512 68.371C17.2512 68.7963 17.1852 69.1813 17.0532 69.526C16.9212 69.8707 16.7342 70.164 16.4922 70.406C16.2502 70.648 15.9569 70.835 15.6122 70.967C15.2676 71.099 14.8789 71.165 14.4462 71.165C13.9916 71.165 13.6029 71.099 13.2802 70.967C12.9576 70.8277 12.6936 70.6517 12.4882 70.439C12.2829 70.219 12.1289 69.9733 12.0262 69.702C11.9309 69.4307 11.8722 69.1557 11.8502 68.877H12.8512C12.8879 69.3903 13.0529 69.7607 13.3462 69.988C13.6396 70.2153 14.0246 70.329 14.5012 70.329C14.7066 70.329 14.9119 70.2923 15.1172 70.219C15.3226 70.1457 15.5059 70.032 15.6672 69.878C15.8359 69.7167 15.9679 69.515 16.0632 69.273C16.1659 69.0237 16.2172 68.7303 16.2172 68.393Z" fill="black"/>
<path d="M7.3832 14.74H3.3572V13.849H8.5492V14.498L5.1392 22H4.0832L7.3832 14.74ZM8.92706 20.658H10.2691V22H8.92706V20.658ZM11.3899 17.952C11.3899 17.2407 11.4595 16.621 11.5989 16.093C11.7382 15.565 11.9325 15.125 12.1819 14.773C12.4385 14.421 12.7465 14.1607 13.1059 13.992C13.4652 13.816 13.8649 13.728 14.3049 13.728C14.7522 13.728 15.1555 13.816 15.5149 13.992C15.8742 14.1607 16.1822 14.421 16.4389 14.773C16.6955 15.125 16.8935 15.565 17.0329 16.093C17.1722 16.621 17.2419 17.2407 17.2419 17.952C17.2419 18.656 17.1722 19.272 17.0329 19.8C16.8935 20.328 16.6955 20.768 16.4389 21.12C16.1895 21.472 15.8815 21.736 15.5149 21.912C15.1555 22.088 14.7522 22.176 14.3049 22.176C13.4029 22.176 12.6915 21.8277 12.1709 21.131C11.6502 20.427 11.3899 19.3673 11.3899 17.952ZM14.3049 21.362C14.8769 21.362 15.3315 21.076 15.6689 20.504C16.0062 19.932 16.1749 19.0887 16.1749 17.974C16.1749 16.8373 16.0099 15.983 15.6799 15.411C15.3499 14.839 14.8915 14.553 14.3049 14.553C13.7329 14.553 13.2819 14.8317 12.9519 15.389C12.6219 15.9463 12.4569 16.808 12.4569 17.974C12.4569 19.1107 12.6182 19.9613 12.9409 20.526C13.2635 21.0833 13.7182 21.362 14.3049 21.362Z" fill="black"/>
<path d="M18 129H308" stroke="black" stroke-width="0.5"/>
<path d="M18 121H1" stroke="black" stroke-width="0.5"/>
<path d="M18 26H1" stroke="black" stroke-width="0.5"/>
<path d="M18 74H1" stroke="black" stroke-width="0.5"/>
<path d="M160 22L157.113 27H162.887L160 22ZM160 40H160.5V26.5H160H159.5V40H160Z" fill="black"/>
</g>
<defs>
<clipPath id="clip0_59_37">
<rect width="309" height="150" fill="white"/>
</clipPath>
</defs>
</svg>
