<svg width="389" height="189" viewBox="0 0 389 189" fill="none" xmlns="http://www.w3.org/2000/svg">
<g clip-path="url(#clip0_61_44)">
<rect width="389" height="189" fill="white"/>
<path d="M25.81 179.73L23.11 175.35H24.19L26.26 178.88H26.28L28.43 175.35H29.42L26.73 179.67V183H25.81V179.73ZM29.9105 179.2C29.9105 178.513 30.0038 177.923 30.1905 177.43C30.3771 176.93 30.6271 176.52 30.9405 176.2C31.2538 175.873 31.6171 175.633 32.0305 175.48C32.4438 175.32 32.8771 175.24 33.3305 175.24C33.7971 175.24 34.2371 175.32 34.6505 175.48C35.0705 175.633 35.4371 175.873 35.7505 176.2C36.0638 176.52 36.3138 176.93 36.5005 177.43C36.6871 177.923 36.7805 178.513 36.7805 179.2C36.7805 179.88 36.6871 180.47 36.5005 180.97C36.3205 181.47 36.0705 181.883 35.7505 182.21C35.4371 182.53 35.0705 182.77 34.6505 182.93C34.2371 183.083 33.7971 183.16 33.3305 183.16C32.8571 183.16 32.4138 183.083 32.0005 182.93C31.5871 182.77 31.2238 182.53 30.9105 182.21C30.6038 181.883 30.3605 181.47 30.1805 180.97C30.0005 180.47 29.9105 179.88 29.9105 179.2ZM33.3305 182.41C33.6905 182.41 34.0205 182.34 34.3205 182.2C34.6271 182.06 34.8871 181.857 35.1005 181.59C35.3205 181.317 35.4905 180.98 35.6105 180.58C35.7371 180.18 35.8005 179.723 35.8005 179.21C35.8005 178.683 35.7405 178.22 35.6205 177.82C35.5005 177.42 35.3305 177.083 35.1105 176.81C34.8971 176.537 34.6371 176.33 34.3305 176.19C34.0305 176.05 33.6971 175.98 33.3305 175.98C32.9705 175.98 32.6405 176.047 32.3405 176.18C32.0471 176.313 31.7905 176.517 31.5705 176.79C31.3571 177.057 31.1905 177.393 31.0705 177.8C30.9505 178.2 30.8905 178.67 30.8905 179.21C30.8905 179.73 30.9471 180.19 31.0605 180.59C31.1805 180.99 31.3471 181.327 31.5605 181.6C31.7738 181.867 32.0305 182.07 32.3305 182.21C32.6305 182.343 32.9638 182.41 33.3305 182.41ZM38.3829 175.35H39.3129V179.75C39.3129 179.923 39.3129 180.103 39.3129 180.29C39.3196 180.477 39.3362 180.657 39.3629 180.83C39.3896 181.003 39.4296 181.17 39.4829 181.33C39.5362 181.483 39.6096 181.62 39.7029 181.74C39.8829 181.967 40.1062 182.133 40.3729 182.24C40.6396 182.34 40.9496 182.39 41.3029 182.39C41.6562 182.39 41.9662 182.34 42.2329 182.24C42.5062 182.133 42.7296 181.967 42.9029 181.74C42.9962 181.62 43.0662 181.483 43.1129 181.33C43.1662 181.17 43.2029 181.003 43.2229 180.83C43.2429 180.657 43.2529 180.477 43.2529 180.29C43.2596 180.103 43.2629 179.923 43.2629 179.75V175.35H44.1829V180.45C44.1829 180.93 44.1129 181.34 43.9729 181.68C43.8329 182.02 43.6362 182.3 43.3829 182.52C43.1296 182.74 42.8229 182.9 42.4629 183C42.1096 183.1 41.7162 183.15 41.2829 183.15C40.8429 183.15 40.4429 183.1 40.0829 183C39.7296 182.9 39.4262 182.743 39.1729 182.53C38.9196 182.31 38.7229 182.03 38.5829 181.69C38.4496 181.35 38.3829 180.937 38.3829 180.45V175.35ZM46.1396 175.35H47.3296L50.7296 181.04C50.7963 181.147 50.8529 181.247 50.8996 181.34C50.9463 181.427 50.9863 181.503 51.0196 181.57C51.0529 181.65 51.0863 181.723 51.1196 181.79H51.1496V175.35H52.0296V183H50.8396L47.4496 177.32C47.3763 177.193 47.3129 177.083 47.2596 176.99C47.2129 176.897 47.1729 176.82 47.1396 176.76L47.0496 176.58H47.0296V183H46.1396V175.35ZM57.2188 175.98C56.8055 175.98 56.4422 176.06 56.1288 176.22C55.8155 176.373 55.5522 176.593 55.3388 176.88C55.1322 177.16 54.9755 177.503 54.8688 177.91C54.7622 178.31 54.7088 178.753 54.7088 179.24C54.7088 180.26 54.9155 181.043 55.3288 181.59C55.7422 182.13 56.3388 182.4 57.1188 182.4C57.8455 182.4 58.4122 182.2 58.8188 181.8C59.2255 181.4 59.4288 180.823 59.4288 180.07V179.96H57.2188V179.14H60.3388V183H59.5288V181.9H59.4888C59.3955 182.067 59.2755 182.227 59.1288 182.38C58.9888 182.533 58.8188 182.667 58.6188 182.78C58.4255 182.893 58.1988 182.983 57.9388 183.05C57.6855 183.123 57.4055 183.16 57.0988 183.16C56.6188 183.16 56.1722 183.08 55.7588 182.92C55.3455 182.76 54.9888 182.52 54.6888 182.2C54.3888 181.873 54.1522 181.463 53.9788 180.97C53.8122 180.47 53.7288 179.883 53.7288 179.21C53.7288 178.583 53.8155 178.027 53.9888 177.54C54.1688 177.047 54.4155 176.63 54.7288 176.29C55.0422 175.95 55.4122 175.69 55.8388 175.51C56.2655 175.33 56.7255 175.24 57.2188 175.24C57.6122 175.24 57.9755 175.29 58.3088 175.39C58.6422 175.483 58.9322 175.623 59.1788 175.81C59.4322 175.99 59.6388 176.213 59.7988 176.48C59.9588 176.74 60.0622 177.04 60.1088 177.38H59.1388C59.1055 177.16 59.0322 176.963 58.9188 176.79C58.8122 176.617 58.6722 176.47 58.4988 176.35C58.3322 176.23 58.1388 176.14 57.9188 176.08C57.6988 176.013 57.4655 175.98 57.2188 175.98ZM62.3701 175.35H67.2601V176.18H63.3001V178.73H66.9401V179.54H63.3001V182.17H67.3101V183H62.3701V175.35ZM71.8277 178.99C72.0543 178.99 72.261 178.963 72.4477 178.91C72.641 178.85 72.8077 178.76 72.9477 178.64C73.0877 178.52 73.1977 178.367 73.2777 178.18C73.3577 177.993 73.3977 177.77 73.3977 177.51C73.3977 177.037 73.251 176.687 72.9577 176.46C72.671 176.227 72.3077 176.11 71.8677 176.11H70.0677V178.99H71.8277ZM71.7677 179.76H70.0677V183H69.1377V175.35H71.9077C72.461 175.35 72.9543 175.463 73.3877 175.69C73.6943 175.863 73.9343 176.1 74.1077 176.4C74.2877 176.693 74.3777 177.06 74.3777 177.5C74.3777 177.86 74.3243 178.163 74.2177 178.41C74.111 178.657 73.9777 178.863 73.8177 179.03C73.6577 179.19 73.481 179.317 73.2877 179.41C73.0943 179.497 72.911 179.563 72.7377 179.61V179.63L74.4277 183H73.3477L71.7677 179.76Z" fill="black"/>
<path d="M351.967 179.2C351.967 178.513 352.06 177.923 352.247 177.43C352.434 176.93 352.684 176.52 352.997 176.2C353.31 175.873 353.674 175.633 354.087 175.48C354.5 175.32 354.934 175.24 355.387 175.24C355.854 175.24 356.294 175.32 356.707 175.48C357.127 175.633 357.494 175.873 357.807 176.2C358.12 176.52 358.37 176.93 358.557 177.43C358.744 177.923 358.837 178.513 358.837 179.2C358.837 179.88 358.744 180.47 358.557 180.97C358.377 181.47 358.127 181.883 357.807 182.21C357.494 182.53 357.127 182.77 356.707 182.93C356.294 183.083 355.854 183.16 355.387 183.16C354.914 183.16 354.47 183.083 354.057 182.93C353.644 182.77 353.28 182.53 352.967 182.21C352.66 181.883 352.417 181.47 352.237 180.97C352.057 180.47 351.967 179.88 351.967 179.2ZM355.387 182.41C355.747 182.41 356.077 182.34 356.377 182.2C356.684 182.06 356.944 181.857 357.157 181.59C357.377 181.317 357.547 180.98 357.667 180.58C357.794 180.18 357.857 179.723 357.857 179.21C357.857 178.683 357.797 178.22 357.677 177.82C357.557 177.42 357.387 177.083 357.167 176.81C356.954 176.537 356.694 176.33 356.387 176.19C356.087 176.05 355.754 175.98 355.387 175.98C355.027 175.98 354.697 176.047 354.397 176.18C354.104 176.313 353.847 176.517 353.627 176.79C353.414 177.057 353.247 177.393 353.127 177.8C353.007 178.2 352.947 178.67 352.947 179.21C352.947 179.73 353.004 180.19 353.117 180.59C353.237 180.99 353.404 181.327 353.617 181.6C353.83 181.867 354.087 182.07 354.387 182.21C354.687 182.343 355.02 182.41 355.387 182.41ZM360.56 175.35H361.49V182.17H365.29V183H360.56V175.35ZM366.585 175.35H368.935C369.455 175.35 369.942 175.417 370.395 175.55C370.848 175.683 371.238 175.9 371.565 176.2C371.898 176.493 372.158 176.877 372.345 177.35C372.538 177.823 372.635 178.4 372.635 179.08C372.635 179.753 372.545 180.337 372.365 180.83C372.192 181.323 371.945 181.73 371.625 182.05C371.305 182.37 370.925 182.61 370.485 182.77C370.045 182.923 369.565 183 369.045 183H366.585V175.35ZM368.935 182.2C369.342 182.2 369.712 182.147 370.045 182.04C370.378 181.927 370.665 181.747 370.905 181.5C371.145 181.253 371.332 180.933 371.465 180.54C371.598 180.147 371.665 179.67 371.665 179.11C371.665 178.577 371.598 178.123 371.465 177.75C371.332 177.37 371.145 177.063 370.905 176.83C370.672 176.59 370.392 176.417 370.065 176.31C369.738 176.203 369.382 176.15 368.995 176.15H367.515V182.2H368.935ZM374.349 175.35H379.239V176.18H375.279V178.73H378.919V179.54H375.279V182.17H379.289V183H374.349V175.35ZM383.806 178.99C384.033 178.99 384.24 178.963 384.426 178.91C384.62 178.85 384.786 178.76 384.926 178.64C385.066 178.52 385.176 178.367 385.256 178.18C385.336 177.993 385.376 177.77 385.376 177.51C385.376 177.037 385.23 176.687 384.936 176.46C384.65 176.227 384.286 176.11 383.846 176.11H382.046V178.99H383.806ZM383.746 179.76H382.046V183H381.116V175.35H383.886C384.44 175.35 384.933 175.463 385.366 175.69C385.673 175.863 385.913 176.1 386.086 176.4C386.266 176.693 386.356 177.06 386.356 177.5C386.356 177.86 386.303 178.163 386.196 178.41C386.09 178.657 385.956 178.863 385.796 179.03C385.636 179.19 385.46 179.317 385.266 179.41C385.073 179.497 384.89 179.563 384.716 179.61V179.63L386.406 183H385.326L383.746 179.76Z" fill="black"/>
<path d="M6.181 149.609C6.12233 149.272 5.97567 149.004 5.741 148.806C5.50633 148.601 5.18 148.498 4.762 148.498C4.39533 148.498 4.08733 148.586 3.838 148.762C3.596 148.938 3.39433 149.18 3.233 149.488C3.079 149.796 2.96533 150.159 2.892 150.577C2.81867 150.988 2.77467 151.428 2.76 151.897H2.804C2.99467 151.552 3.26967 151.277 3.629 151.072C3.98833 150.867 4.399 150.764 4.861 150.764C5.169 150.764 5.46967 150.815 5.763 150.918C6.06367 151.013 6.33133 151.167 6.566 151.38C6.80067 151.593 6.99133 151.864 7.138 152.194C7.28467 152.517 7.358 152.909 7.358 153.371C7.358 153.774 7.292 154.148 7.16 154.493C7.03533 154.83 6.852 155.124 6.61 155.373C6.37533 155.622 6.08567 155.817 5.741 155.956C5.40367 156.095 5.02233 156.165 4.597 156.165C4.23033 156.165 3.87467 156.11 3.53 156C3.19267 155.897 2.892 155.707 2.628 155.428C2.364 155.149 2.15133 154.764 1.99 154.273C1.836 153.782 1.759 153.155 1.759 152.392C1.759 150.845 2.00467 149.682 2.496 148.905C2.98733 148.12 3.74267 147.728 4.762 147.728C5.49533 147.728 6.05633 147.893 6.445 148.223C6.841 148.553 7.06833 149.015 7.127 149.609H6.181ZM4.608 155.329C4.81333 155.329 5.01867 155.292 5.224 155.219C5.42933 155.146 5.61267 155.036 5.774 154.889C5.94267 154.735 6.07467 154.541 6.17 154.306C6.27267 154.071 6.324 153.789 6.324 153.459C6.324 153.158 6.28 152.894 6.192 152.667C6.104 152.432 5.983 152.238 5.829 152.084C5.675 151.93 5.49167 151.813 5.279 151.732C5.07367 151.651 4.85 151.611 4.608 151.611C4.35867 151.611 4.12767 151.648 3.915 151.721C3.70967 151.794 3.53 151.908 3.376 152.062C3.222 152.216 3.101 152.41 3.013 152.645C2.93233 152.872 2.892 153.144 2.892 153.459C2.892 153.789 2.93967 154.071 3.035 154.306C3.13767 154.541 3.266 154.735 3.42 154.889C3.58133 155.036 3.76467 155.146 3.97 155.219C4.17533 155.292 4.388 155.329 4.608 155.329ZM8.47003 154.658H9.81203V156H8.47003V154.658ZM10.9328 151.952C10.9328 151.241 11.0025 150.621 11.1418 150.093C11.2812 149.565 11.4755 149.125 11.7248 148.773C11.9815 148.421 12.2895 148.161 12.6488 147.992C13.0082 147.816 13.4078 147.728 13.8478 147.728C14.2952 147.728 14.6985 147.816 15.0578 147.992C15.4172 148.161 15.7252 148.421 15.9818 148.773C16.2385 149.125 16.4365 149.565 16.5758 150.093C16.7152 150.621 16.7848 151.241 16.7848 151.952C16.7848 152.656 16.7152 153.272 16.5758 153.8C16.4365 154.328 16.2385 154.768 15.9818 155.12C15.7325 155.472 15.4245 155.736 15.0578 155.912C14.6985 156.088 14.2952 156.176 13.8478 156.176C12.9458 156.176 12.2345 155.828 11.7138 155.131C11.1932 154.427 10.9328 153.367 10.9328 151.952ZM13.8478 155.362C14.4198 155.362 14.8745 155.076 15.2118 154.504C15.5492 153.932 15.7178 153.089 15.7178 151.974C15.7178 150.837 15.5528 149.983 15.2228 149.411C14.8928 148.839 14.4345 148.553 13.8478 148.553C13.2758 148.553 12.8248 148.832 12.4948 149.389C12.1648 149.946 11.9998 150.808 11.9998 151.974C11.9998 153.111 12.1612 153.961 12.4838 154.526C12.8065 155.083 13.2612 155.362 13.8478 155.362Z" fill="black"/>
<path d="M183.674 175.35H185.084L187.024 180.83C187.084 181.003 187.134 181.15 187.174 181.27C187.214 181.39 187.25 181.493 187.284 181.58C187.31 181.68 187.337 181.763 187.364 181.83H187.384C187.404 181.763 187.43 181.68 187.464 181.58C187.49 181.493 187.524 181.39 187.564 181.27C187.61 181.15 187.664 181.003 187.724 180.83L189.694 175.35H191.094V183H190.144V176.43H190.114C190.087 176.51 190.054 176.61 190.014 176.73C189.98 176.83 189.937 176.957 189.884 177.11C189.837 177.257 189.777 177.43 189.704 177.63L187.774 183H186.894L185.014 177.63C184.94 177.43 184.877 177.257 184.824 177.11C184.777 176.957 184.737 176.83 184.704 176.73C184.664 176.61 184.63 176.51 184.604 176.43H184.574V183H183.674V175.35ZM193.186 175.35H194.116V183H193.186V175.35ZM196.203 175.35H198.553C199.073 175.35 199.56 175.417 200.013 175.55C200.466 175.683 200.856 175.9 201.183 176.2C201.516 176.493 201.776 176.877 201.963 177.35C202.156 177.823 202.253 178.4 202.253 179.08C202.253 179.753 202.163 180.337 201.983 180.83C201.81 181.323 201.563 181.73 201.243 182.05C200.923 182.37 200.543 182.61 200.103 182.77C199.663 182.923 199.183 183 198.663 183H196.203V175.35ZM198.553 182.2C198.96 182.2 199.33 182.147 199.663 182.04C199.996 181.927 200.283 181.747 200.523 181.5C200.763 181.253 200.95 180.933 201.083 180.54C201.216 180.147 201.283 179.67 201.283 179.11C201.283 178.577 201.216 178.123 201.083 177.75C200.95 177.37 200.763 177.063 200.523 176.83C200.29 176.59 200.01 176.417 199.683 176.31C199.356 176.203 199 176.15 198.613 176.15H197.133V182.2H198.553ZM203.967 175.35H206.317C206.837 175.35 207.323 175.417 207.777 175.55C208.23 175.683 208.62 175.9 208.947 176.2C209.28 176.493 209.54 176.877 209.727 177.35C209.92 177.823 210.017 178.4 210.017 179.08C210.017 179.753 209.927 180.337 209.747 180.83C209.573 181.323 209.327 181.73 209.007 182.05C208.687 182.37 208.307 182.61 207.867 182.77C207.427 182.923 206.947 183 206.427 183H203.967V175.35ZM206.317 182.2C206.723 182.2 207.093 182.147 207.427 182.04C207.76 181.927 208.047 181.747 208.287 181.5C208.527 181.253 208.713 180.933 208.847 180.54C208.98 180.147 209.047 179.67 209.047 179.11C209.047 178.577 208.98 178.123 208.847 177.75C208.713 177.37 208.527 177.063 208.287 176.83C208.053 176.59 207.773 176.417 207.447 176.31C207.12 176.203 206.763 176.15 206.377 176.15H204.897V182.2H206.317ZM211.73 175.35H212.66V182.17H216.46V183H211.73V175.35ZM217.756 175.35H222.646V176.18H218.686V178.73H222.326V179.54H218.686V182.17H222.696V183H217.756V175.35ZM229.848 176.28C229.841 176.293 229.828 176.33 229.808 176.39C229.795 176.45 229.771 176.527 229.738 176.62C229.711 176.707 229.681 176.803 229.648 176.91C229.615 177.017 229.578 177.123 229.538 177.23L228.588 179.97H231.128L230.168 177.23C230.128 177.117 230.088 177.003 230.048 176.89C230.015 176.777 229.985 176.673 229.958 176.58C229.925 176.473 229.895 176.373 229.868 176.28H229.848ZM231.388 180.72H228.328L227.538 183H226.608L229.328 175.35H230.428L233.178 183H232.188L231.388 180.72ZM237.487 175.98C237.074 175.98 236.711 176.06 236.397 176.22C236.084 176.373 235.821 176.593 235.607 176.88C235.401 177.16 235.244 177.503 235.137 177.91C235.031 178.31 234.977 178.753 234.977 179.24C234.977 180.26 235.184 181.043 235.597 181.59C236.011 182.13 236.607 182.4 237.387 182.4C238.114 182.4 238.681 182.2 239.087 181.8C239.494 181.4 239.697 180.823 239.697 180.07V179.96H237.487V179.14H240.607V183H239.797V181.9H239.757C239.664 182.067 239.544 182.227 239.397 182.38C239.257 182.533 239.087 182.667 238.887 182.78C238.694 182.893 238.467 182.983 238.207 183.05C237.954 183.123 237.674 183.16 237.367 183.16C236.887 183.16 236.441 183.08 236.027 182.92C235.614 182.76 235.257 182.52 234.957 182.2C234.657 181.873 234.421 181.463 234.247 180.97C234.081 180.47 233.997 179.883 233.997 179.21C233.997 178.583 234.084 178.027 234.257 177.54C234.437 177.047 234.684 176.63 234.997 176.29C235.311 175.95 235.681 175.69 236.107 175.51C236.534 175.33 236.994 175.24 237.487 175.24C237.881 175.24 238.244 175.29 238.577 175.39C238.911 175.483 239.201 175.623 239.447 175.81C239.701 175.99 239.907 176.213 240.067 176.48C240.227 176.74 240.331 177.04 240.377 177.38H239.407C239.374 177.16 239.301 176.963 239.187 176.79C239.081 176.617 238.941 176.47 238.767 176.35C238.601 176.23 238.407 176.14 238.187 176.08C237.967 176.013 237.734 175.98 237.487 175.98ZM242.639 175.35H247.529V176.18H243.569V178.73H247.209V179.54H243.569V182.17H247.579V183H242.639V175.35Z" fill="black"/>
<path d="M181.573 24H180.643V16.35H181.573V19.72H185.583V16.35H186.513V24H185.583V20.55H181.573V24ZM191.192 17.28C191.185 17.2933 191.172 17.33 191.152 17.39C191.138 17.45 191.115 17.5267 191.082 17.62C191.055 17.7067 191.025 17.8033 190.992 17.91C190.958 18.0167 190.922 18.1233 190.882 18.23L189.932 20.97H192.472L191.512 18.23C191.472 18.1167 191.432 18.0033 191.392 17.89C191.358 17.7767 191.328 17.6733 191.302 17.58C191.268 17.4733 191.238 17.3733 191.212 17.28H191.192ZM192.732 21.72H189.672L188.882 24H187.952L190.672 16.35H191.772L194.522 24H193.532L192.732 21.72ZM196.885 21.08V24H195.955V16.35H198.255C198.622 16.35 198.965 16.3967 199.285 16.49C199.612 16.5767 199.892 16.7167 200.125 16.91C200.358 17.0967 200.542 17.34 200.675 17.64C200.815 17.9333 200.885 18.2867 200.885 18.7C200.885 19.1067 200.815 19.46 200.675 19.76C200.542 20.0533 200.355 20.3 200.115 20.5C199.875 20.6933 199.588 20.84 199.255 20.94C198.928 21.0333 198.568 21.08 198.175 21.08H196.885ZM198.175 20.33C198.735 20.33 199.165 20.1967 199.465 19.93C199.772 19.6567 199.925 19.2467 199.925 18.7C199.925 18.1267 199.772 17.7167 199.465 17.47C199.165 17.2233 198.745 17.1 198.205 17.1H196.885V20.33H198.175ZM203.272 21.08V24H202.342V16.35H204.642C205.008 16.35 205.352 16.3967 205.672 16.49C205.998 16.5767 206.278 16.7167 206.512 16.91C206.745 17.0967 206.928 17.34 207.062 17.64C207.202 17.9333 207.272 18.2867 207.272 18.7C207.272 19.1067 207.202 19.46 207.062 19.76C206.928 20.0533 206.742 20.3 206.502 20.5C206.262 20.6933 205.975 20.84 205.642 20.94C205.315 21.0333 204.955 21.08 204.562 21.08H203.272ZM204.562 20.33C205.122 20.33 205.552 20.1967 205.852 19.93C206.158 19.6567 206.312 19.2467 206.312 18.7C206.312 18.1267 206.158 17.7167 205.852 17.47C205.552 17.2233 205.132 17.1 204.592 17.1H203.272V20.33H204.562ZM208.728 16.35H209.658V24H208.728V16.35ZM211.746 16.35H216.636V17.18H212.676V19.73H216.316V20.54H212.676V23.17H216.686V24H211.746V16.35ZM221.204 19.99C221.43 19.99 221.637 19.9633 221.824 19.91C222.017 19.85 222.184 19.76 222.324 19.64C222.464 19.52 222.574 19.3667 222.654 19.18C222.734 18.9933 222.774 18.77 222.774 18.51C222.774 18.0367 222.627 17.6867 222.334 17.46C222.047 17.2267 221.684 17.11 221.244 17.11H219.444V19.99H221.204ZM221.144 20.76H219.444V24H218.514V16.35H221.284C221.837 16.35 222.33 16.4633 222.764 16.69C223.07 16.8633 223.31 17.1 223.484 17.4C223.664 17.6933 223.754 18.06 223.754 18.5C223.754 18.86 223.7 19.1633 223.594 19.41C223.487 19.6567 223.354 19.8633 223.194 20.03C223.034 20.19 222.857 20.3167 222.664 20.41C222.47 20.4967 222.287 20.5633 222.114 20.61V20.63L223.804 24H222.724L221.144 20.76Z" fill="black"/>
<path d="M33 58.0593L54.8355 94.9482L77.5809 97.4074L98.5066 91.8741H120.342L141.268 100.481L163.103 109.704L184.939 116.467L203.135 122L226.79 109.704L248.626 100.481L269.552 85.1111L290.477 69.1259L312.313 60.5185L334.149 52.5259L355.074 47.6074L376 39" stroke="black" stroke-width="2"/>
<path d="M6.181 87.609C6.12233 87.2717 5.97567 87.004 5.741 86.806C5.50633 86.6007 5.18 86.498 4.762 86.498C4.39533 86.498 4.08733 86.586 3.838 86.762C3.596 86.938 3.39433 87.18 3.233 87.488C3.079 87.796 2.96533 88.159 2.892 88.577C2.81867 88.9877 2.77467 89.4277 2.76 89.897H2.804C2.99467 89.5523 3.26967 89.2773 3.629 89.072C3.98833 88.8667 4.399 88.764 4.861 88.764C5.169 88.764 5.46967 88.8153 5.763 88.918C6.06367 89.0133 6.33133 89.1673 6.566 89.38C6.80067 89.5927 6.99133 89.864 7.138 90.194C7.28467 90.5167 7.358 90.909 7.358 91.371C7.358 91.7743 7.292 92.1483 7.16 92.493C7.03533 92.8303 6.852 93.1237 6.61 93.373C6.37533 93.6223 6.08567 93.8167 5.741 93.956C5.40367 94.0953 5.02233 94.165 4.597 94.165C4.23033 94.165 3.87467 94.11 3.53 94C3.19267 93.8973 2.892 93.7067 2.628 93.428C2.364 93.1493 2.15133 92.7643 1.99 92.273C1.836 91.7817 1.759 91.1547 1.759 90.392C1.759 88.8447 2.00467 87.6823 2.496 86.905C2.98733 86.1203 3.74267 85.728 4.762 85.728C5.49533 85.728 6.05633 85.893 6.445 86.223C6.841 86.553 7.06833 87.015 7.127 87.609H6.181ZM4.608 93.329C4.81333 93.329 5.01867 93.2923 5.224 93.219C5.42933 93.1457 5.61267 93.0357 5.774 92.889C5.94267 92.735 6.07467 92.5407 6.17 92.306C6.27267 92.0713 6.324 91.789 6.324 91.459C6.324 91.1583 6.28 90.8943 6.192 90.667C6.104 90.4323 5.983 90.238 5.829 90.084C5.675 89.93 5.49167 89.8127 5.279 89.732C5.07367 89.6513 4.85 89.611 4.608 89.611C4.35867 89.611 4.12767 89.6477 3.915 89.721C3.70967 89.7943 3.53 89.908 3.376 90.062C3.222 90.216 3.101 90.4103 3.013 90.645C2.93233 90.8723 2.892 91.1437 2.892 91.459C2.892 91.789 2.93967 92.0713 3.035 92.306C3.13767 92.5407 3.266 92.735 3.42 92.889C3.58133 93.0357 3.76467 93.1457 3.97 93.219C4.17533 93.2923 4.388 93.329 4.608 93.329ZM8.47003 92.658H9.81203V94H8.47003V92.658ZM15.5131 91.393C15.5131 91.085 15.4691 90.8137 15.3811 90.579C15.2931 90.337 15.1721 90.1353 15.0181 89.974C14.8641 89.8127 14.6808 89.6917 14.4681 89.611C14.2628 89.523 14.0391 89.479 13.7971 89.479C13.4598 89.479 13.1628 89.5413 12.9061 89.666C12.6495 89.7833 12.4441 89.9593 12.2901 90.194H11.4321L11.7841 85.849H16.1181V86.707H12.6201L12.4111 89.303H12.4331C12.5798 89.1343 12.7851 88.9803 13.0491 88.841C13.3205 88.7017 13.6431 88.632 14.0171 88.632C14.3325 88.632 14.6405 88.6833 14.9411 88.786C15.2491 88.8887 15.5205 89.0537 15.7551 89.281C15.9971 89.501 16.1878 89.7833 16.3271 90.128C16.4738 90.4727 16.5471 90.887 16.5471 91.371C16.5471 91.7963 16.4811 92.1813 16.3491 92.526C16.2171 92.8707 16.0301 93.164 15.7881 93.406C15.5461 93.648 15.2528 93.835 14.9081 93.967C14.5635 94.099 14.1748 94.165 13.7421 94.165C13.2875 94.165 12.8988 94.099 12.5761 93.967C12.2535 93.8277 11.9895 93.6517 11.7841 93.439C11.5788 93.219 11.4248 92.9733 11.3221 92.702C11.2268 92.4307 11.1681 92.1557 11.1461 91.877H12.1471C12.1838 92.3903 12.3488 92.7607 12.6421 92.988C12.9355 93.2153 13.3205 93.329 13.7971 93.329C14.0025 93.329 14.2078 93.2923 14.4131 93.219C14.6185 93.1457 14.8018 93.032 14.9631 92.878C15.1318 92.7167 15.2638 92.515 15.3591 92.273C15.4618 92.0237 15.5131 91.7303 15.5131 91.393Z" fill="black"/>
<path d="M5.433 24.74H1.407V23.849H6.599V24.498L3.189 32H2.133L5.433 24.74ZM6.97687 30.658H8.31887V32H6.97687V30.658ZM9.43966 27.952C9.43966 27.2407 9.50933 26.621 9.64866 26.093C9.788 25.565 9.98233 25.125 10.2317 24.773C10.4883 24.421 10.7963 24.1607 11.1557 23.992C11.515 23.816 11.9147 23.728 12.3547 23.728C12.802 23.728 13.2053 23.816 13.5647 23.992C13.924 24.1607 14.232 24.421 14.4887 24.773C14.7453 25.125 14.9433 25.565 15.0827 26.093C15.222 26.621 15.2917 27.2407 15.2917 27.952C15.2917 28.656 15.222 29.272 15.0827 29.8C14.9433 30.328 14.7453 30.768 14.4887 31.12C14.2393 31.472 13.9313 31.736 13.5647 31.912C13.2053 32.088 12.802 32.176 12.3547 32.176C11.4527 32.176 10.7413 31.8277 10.2207 31.131C9.7 30.427 9.43966 29.3673 9.43966 27.952ZM12.3547 31.362C12.9267 31.362 13.3813 31.076 13.7187 30.504C14.056 29.932 14.2247 29.0887 14.2247 27.974C14.2247 26.8373 14.0597 25.983 13.7297 25.411C13.3997 24.839 12.9413 24.553 12.3547 24.553C11.7827 24.553 11.3317 24.8317 11.0017 25.389C10.6717 25.9463 10.5067 26.808 10.5067 27.974C10.5067 29.1107 10.668 29.9613 10.9907 30.526C11.3133 31.0833 11.768 31.362 12.3547 31.362Z" fill="black"/>
<path d="M23 168H386" stroke="black" stroke-width="0.5"/>
<path d="M23 159H1" stroke="black" stroke-width="0.5"/>
<path d="M23 37H1" stroke="black" stroke-width="0.5"/>
<path d="M23 98H1" stroke="black" stroke-width="0.5"/>
<path d="M200 31L197.113 36H202.887L200 31ZM200 55H200.5V35.5H200H199.5V55H200Z" fill="black"/>
</g>
<defs>
<clipPath id="clip0_61_44">
<rect width="389" height="189" fill="white"/>
</clipPath>
</defs>
</svg>
