<svg width="389" height="191" viewBox="0 0 389 191" fill="none" xmlns="http://www.w3.org/2000/svg">
<g clip-path="url(#clip0_61_110)">
<rect width="389" height="191" fill="white"/>
<path d="M25.81 181.73L23.11 177.35H24.19L26.26 180.88H26.28L28.43 177.35H29.42L26.73 181.67V185H25.81V181.73ZM29.9105 181.2C29.9105 180.513 30.0038 179.923 30.1905 179.43C30.3771 178.93 30.6271 178.52 30.9405 178.2C31.2538 177.873 31.6171 177.633 32.0305 177.48C32.4438 177.32 32.8771 177.24 33.3305 177.24C33.7971 177.24 34.2371 177.32 34.6505 177.48C35.0705 177.633 35.4371 177.873 35.7505 178.2C36.0638 178.52 36.3138 178.93 36.5005 179.43C36.6871 179.923 36.7805 180.513 36.7805 181.2C36.7805 181.88 36.6871 182.47 36.5005 182.97C36.3205 183.47 36.0705 183.883 35.7505 184.21C35.4371 184.53 35.0705 184.77 34.6505 184.93C34.2371 185.083 33.7971 185.16 33.3305 185.16C32.8571 185.16 32.4138 185.083 32.0005 184.93C31.5871 184.77 31.2238 184.53 30.9105 184.21C30.6038 183.883 30.3605 183.47 30.1805 182.97C30.0005 182.47 29.9105 181.88 29.9105 181.2ZM33.3305 184.41C33.6905 184.41 34.0205 184.34 34.3205 184.2C34.6271 184.06 34.8871 183.857 35.1005 183.59C35.3205 183.317 35.4905 182.98 35.6105 182.58C35.7371 182.18 35.8005 181.723 35.8005 181.21C35.8005 180.683 35.7405 180.22 35.6205 179.82C35.5005 179.42 35.3305 179.083 35.1105 178.81C34.8971 178.537 34.6371 178.33 34.3305 178.19C34.0305 178.05 33.6971 177.98 33.3305 177.98C32.9705 177.98 32.6405 178.047 32.3405 178.18C32.0471 178.313 31.7905 178.517 31.5705 178.79C31.3571 179.057 31.1905 179.393 31.0705 179.8C30.9505 180.2 30.8905 180.67 30.8905 181.21C30.8905 181.73 30.9471 182.19 31.0605 182.59C31.1805 182.99 31.3471 183.327 31.5605 183.6C31.7738 183.867 32.0305 184.07 32.3305 184.21C32.6305 184.343 32.9638 184.41 33.3305 184.41ZM38.3829 177.35H39.3129V181.75C39.3129 181.923 39.3129 182.103 39.3129 182.29C39.3196 182.477 39.3362 182.657 39.3629 182.83C39.3896 183.003 39.4296 183.17 39.4829 183.33C39.5362 183.483 39.6096 183.62 39.7029 183.74C39.8829 183.967 40.1062 184.133 40.3729 184.24C40.6396 184.34 40.9496 184.39 41.3029 184.39C41.6562 184.39 41.9662 184.34 42.2329 184.24C42.5062 184.133 42.7296 183.967 42.9029 183.74C42.9962 183.62 43.0662 183.483 43.1129 183.33C43.1662 183.17 43.2029 183.003 43.2229 182.83C43.2429 182.657 43.2529 182.477 43.2529 182.29C43.2596 182.103 43.2629 181.923 43.2629 181.75V177.35H44.1829V182.45C44.1829 182.93 44.1129 183.34 43.9729 183.68C43.8329 184.02 43.6362 184.3 43.3829 184.52C43.1296 184.74 42.8229 184.9 42.4629 185C42.1096 185.1 41.7162 185.15 41.2829 185.15C40.8429 185.15 40.4429 185.1 40.0829 185C39.7296 184.9 39.4262 184.743 39.1729 184.53C38.9196 184.31 38.7229 184.03 38.5829 183.69C38.4496 183.35 38.3829 182.937 38.3829 182.45V177.35ZM46.1396 177.35H47.3296L50.7296 183.04C50.7963 183.147 50.8529 183.247 50.8996 183.34C50.9463 183.427 50.9863 183.503 51.0196 183.57C51.0529 183.65 51.0863 183.723 51.1196 183.79H51.1496V177.35H52.0296V185H50.8396L47.4496 179.32C47.3763 179.193 47.3129 179.083 47.2596 178.99C47.2129 178.897 47.1729 178.82 47.1396 178.76L47.0496 178.58H47.0296V185H46.1396V177.35ZM57.2188 177.98C56.8055 177.98 56.4422 178.06 56.1288 178.22C55.8155 178.373 55.5522 178.593 55.3388 178.88C55.1322 179.16 54.9755 179.503 54.8688 179.91C54.7622 180.31 54.7088 180.753 54.7088 181.24C54.7088 182.26 54.9155 183.043 55.3288 183.59C55.7422 184.13 56.3388 184.4 57.1188 184.4C57.8455 184.4 58.4122 184.2 58.8188 183.8C59.2255 183.4 59.4288 182.823 59.4288 182.07V181.96H57.2188V181.14H60.3388V185H59.5288V183.9H59.4888C59.3955 184.067 59.2755 184.227 59.1288 184.38C58.9888 184.533 58.8188 184.667 58.6188 184.78C58.4255 184.893 58.1988 184.983 57.9388 185.05C57.6855 185.123 57.4055 185.16 57.0988 185.16C56.6188 185.16 56.1722 185.08 55.7588 184.92C55.3455 184.76 54.9888 184.52 54.6888 184.2C54.3888 183.873 54.1522 183.463 53.9788 182.97C53.8122 182.47 53.7288 181.883 53.7288 181.21C53.7288 180.583 53.8155 180.027 53.9888 179.54C54.1688 179.047 54.4155 178.63 54.7288 178.29C55.0422 177.95 55.4122 177.69 55.8388 177.51C56.2655 177.33 56.7255 177.24 57.2188 177.24C57.6122 177.24 57.9755 177.29 58.3088 177.39C58.6422 177.483 58.9322 177.623 59.1788 177.81C59.4322 177.99 59.6388 178.213 59.7988 178.48C59.9588 178.74 60.0622 179.04 60.1088 179.38H59.1388C59.1055 179.16 59.0322 178.963 58.9188 178.79C58.8122 178.617 58.6722 178.47 58.4988 178.35C58.3322 178.23 58.1388 178.14 57.9188 178.08C57.6988 178.013 57.4655 177.98 57.2188 177.98ZM62.3701 177.35H67.2601V178.18H63.3001V180.73H66.9401V181.54H63.3001V184.17H67.3101V185H62.3701V177.35ZM71.8277 180.99C72.0543 180.99 72.261 180.963 72.4477 180.91C72.641 180.85 72.8077 180.76 72.9477 180.64C73.0877 180.52 73.1977 180.367 73.2777 180.18C73.3577 179.993 73.3977 179.77 73.3977 179.51C73.3977 179.037 73.251 178.687 72.9577 178.46C72.671 178.227 72.3077 178.11 71.8677 178.11H70.0677V180.99H71.8277ZM71.7677 181.76H70.0677V185H69.1377V177.35H71.9077C72.461 177.35 72.9543 177.463 73.3877 177.69C73.6943 177.863 73.9343 178.1 74.1077 178.4C74.2877 178.693 74.3777 179.06 74.3777 179.5C74.3777 179.86 74.3243 180.163 74.2177 180.41C74.111 180.657 73.9777 180.863 73.8177 181.03C73.6577 181.19 73.481 181.317 73.2877 181.41C73.0943 181.497 72.911 181.563 72.7377 181.61V181.63L74.4277 185H73.3477L71.7677 181.76Z" fill="black"/>
<path d="M351.967 181.2C351.967 180.513 352.06 179.923 352.247 179.43C352.434 178.93 352.684 178.52 352.997 178.2C353.31 177.873 353.674 177.633 354.087 177.48C354.5 177.32 354.934 177.24 355.387 177.24C355.854 177.24 356.294 177.32 356.707 177.48C357.127 177.633 357.494 177.873 357.807 178.2C358.12 178.52 358.37 178.93 358.557 179.43C358.744 179.923 358.837 180.513 358.837 181.2C358.837 181.88 358.744 182.47 358.557 182.97C358.377 183.47 358.127 183.883 357.807 184.21C357.494 184.53 357.127 184.77 356.707 184.93C356.294 185.083 355.854 185.16 355.387 185.16C354.914 185.16 354.47 185.083 354.057 184.93C353.644 184.77 353.28 184.53 352.967 184.21C352.66 183.883 352.417 183.47 352.237 182.97C352.057 182.47 351.967 181.88 351.967 181.2ZM355.387 184.41C355.747 184.41 356.077 184.34 356.377 184.2C356.684 184.06 356.944 183.857 357.157 183.59C357.377 183.317 357.547 182.98 357.667 182.58C357.794 182.18 357.857 181.723 357.857 181.21C357.857 180.683 357.797 180.22 357.677 179.82C357.557 179.42 357.387 179.083 357.167 178.81C356.954 178.537 356.694 178.33 356.387 178.19C356.087 178.05 355.754 177.98 355.387 177.98C355.027 177.98 354.697 178.047 354.397 178.18C354.104 178.313 353.847 178.517 353.627 178.79C353.414 179.057 353.247 179.393 353.127 179.8C353.007 180.2 352.947 180.67 352.947 181.21C352.947 181.73 353.004 182.19 353.117 182.59C353.237 182.99 353.404 183.327 353.617 183.6C353.83 183.867 354.087 184.07 354.387 184.21C354.687 184.343 355.02 184.41 355.387 184.41ZM360.56 177.35H361.49V184.17H365.29V185H360.56V177.35ZM366.585 177.35H368.935C369.455 177.35 369.942 177.417 370.395 177.55C370.848 177.683 371.238 177.9 371.565 178.2C371.898 178.493 372.158 178.877 372.345 179.35C372.538 179.823 372.635 180.4 372.635 181.08C372.635 181.753 372.545 182.337 372.365 182.83C372.192 183.323 371.945 183.73 371.625 184.05C371.305 184.37 370.925 184.61 370.485 184.77C370.045 184.923 369.565 185 369.045 185H366.585V177.35ZM368.935 184.2C369.342 184.2 369.712 184.147 370.045 184.04C370.378 183.927 370.665 183.747 370.905 183.5C371.145 183.253 371.332 182.933 371.465 182.54C371.598 182.147 371.665 181.67 371.665 181.11C371.665 180.577 371.598 180.123 371.465 179.75C371.332 179.37 371.145 179.063 370.905 178.83C370.672 178.59 370.392 178.417 370.065 178.31C369.738 178.203 369.382 178.15 368.995 178.15H367.515V184.2H368.935ZM374.349 177.35H379.239V178.18H375.279V180.73H378.919V181.54H375.279V184.17H379.289V185H374.349V177.35ZM383.806 180.99C384.033 180.99 384.24 180.963 384.426 180.91C384.62 180.85 384.786 180.76 384.926 180.64C385.066 180.52 385.176 180.367 385.256 180.18C385.336 179.993 385.376 179.77 385.376 179.51C385.376 179.037 385.23 178.687 384.936 178.46C384.65 178.227 384.286 178.11 383.846 178.11H382.046V180.99H383.806ZM383.746 181.76H382.046V185H381.116V177.35H383.886C384.44 177.35 384.933 177.463 385.366 177.69C385.673 177.863 385.913 178.1 386.086 178.4C386.266 178.693 386.356 179.06 386.356 179.5C386.356 179.86 386.303 180.163 386.196 180.41C386.09 180.657 385.956 180.863 385.796 181.03C385.636 181.19 385.46 181.317 385.266 181.41C385.073 181.497 384.89 181.563 384.716 181.61V181.63L386.406 185H385.326L383.746 181.76Z" fill="black"/>
<path d="M183.674 177.35H185.084L187.024 182.83C187.084 183.003 187.134 183.15 187.174 183.27C187.214 183.39 187.25 183.493 187.284 183.58C187.31 183.68 187.337 183.763 187.364 183.83H187.384C187.404 183.763 187.43 183.68 187.464 183.58C187.49 183.493 187.524 183.39 187.564 183.27C187.61 183.15 187.664 183.003 187.724 182.83L189.694 177.35H191.094V185H190.144V178.43H190.114C190.087 178.51 190.054 178.61 190.014 178.73C189.98 178.83 189.937 178.957 189.884 179.11C189.837 179.257 189.777 179.43 189.704 179.63L187.774 185H186.894L185.014 179.63C184.94 179.43 184.877 179.257 184.824 179.11C184.777 178.957 184.737 178.83 184.704 178.73C184.664 178.61 184.63 178.51 184.604 178.43H184.574V185H183.674V177.35ZM193.186 177.35H194.116V185H193.186V177.35ZM196.203 177.35H198.553C199.073 177.35 199.56 177.417 200.013 177.55C200.466 177.683 200.856 177.9 201.183 178.2C201.516 178.493 201.776 178.877 201.963 179.35C202.156 179.823 202.253 180.4 202.253 181.08C202.253 181.753 202.163 182.337 201.983 182.83C201.81 183.323 201.563 183.73 201.243 184.05C200.923 184.37 200.543 184.61 200.103 184.77C199.663 184.923 199.183 185 198.663 185H196.203V177.35ZM198.553 184.2C198.96 184.2 199.33 184.147 199.663 184.04C199.996 183.927 200.283 183.747 200.523 183.5C200.763 183.253 200.95 182.933 201.083 182.54C201.216 182.147 201.283 181.67 201.283 181.11C201.283 180.577 201.216 180.123 201.083 179.75C200.95 179.37 200.763 179.063 200.523 178.83C200.29 178.59 200.01 178.417 199.683 178.31C199.356 178.203 199 178.15 198.613 178.15H197.133V184.2H198.553ZM203.967 177.35H206.317C206.837 177.35 207.323 177.417 207.777 177.55C208.23 177.683 208.62 177.9 208.947 178.2C209.28 178.493 209.54 178.877 209.727 179.35C209.92 179.823 210.017 180.4 210.017 181.08C210.017 181.753 209.927 182.337 209.747 182.83C209.573 183.323 209.327 183.73 209.007 184.05C208.687 184.37 208.307 184.61 207.867 184.77C207.427 184.923 206.947 185 206.427 185H203.967V177.35ZM206.317 184.2C206.723 184.2 207.093 184.147 207.427 184.04C207.76 183.927 208.047 183.747 208.287 183.5C208.527 183.253 208.713 182.933 208.847 182.54C208.98 182.147 209.047 181.67 209.047 181.11C209.047 180.577 208.98 180.123 208.847 179.75C208.713 179.37 208.527 179.063 208.287 178.83C208.053 178.59 207.773 178.417 207.447 178.31C207.12 178.203 206.763 178.15 206.377 178.15H204.897V184.2H206.317ZM211.73 177.35H212.66V184.17H216.46V185H211.73V177.35ZM217.756 177.35H222.646V178.18H218.686V180.73H222.326V181.54H218.686V184.17H222.696V185H217.756V177.35ZM229.848 178.28C229.841 178.293 229.828 178.33 229.808 178.39C229.795 178.45 229.771 178.527 229.738 178.62C229.711 178.707 229.681 178.803 229.648 178.91C229.615 179.017 229.578 179.123 229.538 179.23L228.588 181.97H231.128L230.168 179.23C230.128 179.117 230.088 179.003 230.048 178.89C230.015 178.777 229.985 178.673 229.958 178.58C229.925 178.473 229.895 178.373 229.868 178.28H229.848ZM231.388 182.72H228.328L227.538 185H226.608L229.328 177.35H230.428L233.178 185H232.188L231.388 182.72ZM237.487 177.98C237.074 177.98 236.711 178.06 236.397 178.22C236.084 178.373 235.821 178.593 235.607 178.88C235.401 179.16 235.244 179.503 235.137 179.91C235.031 180.31 234.977 180.753 234.977 181.24C234.977 182.26 235.184 183.043 235.597 183.59C236.011 184.13 236.607 184.4 237.387 184.4C238.114 184.4 238.681 184.2 239.087 183.8C239.494 183.4 239.697 182.823 239.697 182.07V181.96H237.487V181.14H240.607V185H239.797V183.9H239.757C239.664 184.067 239.544 184.227 239.397 184.38C239.257 184.533 239.087 184.667 238.887 184.78C238.694 184.893 238.467 184.983 238.207 185.05C237.954 185.123 237.674 185.16 237.367 185.16C236.887 185.16 236.441 185.08 236.027 184.92C235.614 184.76 235.257 184.52 234.957 184.2C234.657 183.873 234.421 183.463 234.247 182.97C234.081 182.47 233.997 181.883 233.997 181.21C233.997 180.583 234.084 180.027 234.257 179.54C234.437 179.047 234.684 178.63 234.997 178.29C235.311 177.95 235.681 177.69 236.107 177.51C236.534 177.33 236.994 177.24 237.487 177.24C237.881 177.24 238.244 177.29 238.577 177.39C238.911 177.483 239.201 177.623 239.447 177.81C239.701 177.99 239.907 178.213 240.067 178.48C240.227 178.74 240.331 179.04 240.377 179.38H239.407C239.374 179.16 239.301 178.963 239.187 178.79C239.081 178.617 238.941 178.47 238.767 178.35C238.601 178.23 238.407 178.14 238.187 178.08C237.967 178.013 237.734 177.98 237.487 177.98ZM242.639 177.35H247.529V178.18H243.569V180.73H247.209V181.54H243.569V184.17H247.579V185H242.639V177.35Z" fill="black"/>
<path d="M181.573 26H180.643V18.35H181.573V21.72H185.583V18.35H186.513V26H185.583V22.55H181.573V26ZM191.192 19.28C191.185 19.2933 191.172 19.33 191.152 19.39C191.138 19.45 191.115 19.5267 191.082 19.62C191.055 19.7067 191.025 19.8033 190.992 19.91C190.958 20.0167 190.922 20.1233 190.882 20.23L189.932 22.97H192.472L191.512 20.23C191.472 20.1167 191.432 20.0033 191.392 19.89C191.358 19.7767 191.328 19.6733 191.302 19.58C191.268 19.4733 191.238 19.3733 191.212 19.28H191.192ZM192.732 23.72H189.672L188.882 26H187.952L190.672 18.35H191.772L194.522 26H193.532L192.732 23.72ZM196.885 23.08V26H195.955V18.35H198.255C198.622 18.35 198.965 18.3967 199.285 18.49C199.612 18.5767 199.892 18.7167 200.125 18.91C200.358 19.0967 200.542 19.34 200.675 19.64C200.815 19.9333 200.885 20.2867 200.885 20.7C200.885 21.1067 200.815 21.46 200.675 21.76C200.542 22.0533 200.355 22.3 200.115 22.5C199.875 22.6933 199.588 22.84 199.255 22.94C198.928 23.0333 198.568 23.08 198.175 23.08H196.885ZM198.175 22.33C198.735 22.33 199.165 22.1967 199.465 21.93C199.772 21.6567 199.925 21.2467 199.925 20.7C199.925 20.1267 199.772 19.7167 199.465 19.47C199.165 19.2233 198.745 19.1 198.205 19.1H196.885V22.33H198.175ZM203.272 23.08V26H202.342V18.35H204.642C205.008 18.35 205.352 18.3967 205.672 18.49C205.998 18.5767 206.278 18.7167 206.512 18.91C206.745 19.0967 206.928 19.34 207.062 19.64C207.202 19.9333 207.272 20.2867 207.272 20.7C207.272 21.1067 207.202 21.46 207.062 21.76C206.928 22.0533 206.742 22.3 206.502 22.5C206.262 22.6933 205.975 22.84 205.642 22.94C205.315 23.0333 204.955 23.08 204.562 23.08H203.272ZM204.562 22.33C205.122 22.33 205.552 22.1967 205.852 21.93C206.158 21.6567 206.312 21.2467 206.312 20.7C206.312 20.1267 206.158 19.7167 205.852 19.47C205.552 19.2233 205.132 19.1 204.592 19.1H203.272V22.33H204.562ZM208.728 18.35H209.658V26H208.728V18.35ZM211.746 18.35H216.636V19.18H212.676V21.73H216.316V22.54H212.676V25.17H216.686V26H211.746V18.35ZM221.204 21.99C221.43 21.99 221.637 21.9633 221.824 21.91C222.017 21.85 222.184 21.76 222.324 21.64C222.464 21.52 222.574 21.3667 222.654 21.18C222.734 20.9933 222.774 20.77 222.774 20.51C222.774 20.0367 222.627 19.6867 222.334 19.46C222.047 19.2267 221.684 19.11 221.244 19.11H219.444V21.99H221.204ZM221.144 22.76H219.444V26H218.514V18.35H221.284C221.837 18.35 222.33 18.4633 222.764 18.69C223.07 18.8633 223.31 19.1 223.484 19.4C223.664 19.6933 223.754 20.06 223.754 20.5C223.754 20.86 223.7 21.1633 223.594 21.41C223.487 21.6567 223.354 21.8633 223.194 22.03C223.034 22.19 222.857 22.3167 222.664 22.41C222.47 22.4967 222.287 22.5633 222.114 22.61V22.63L223.804 26H222.724L221.144 22.76Z" fill="black"/>
<path d="M23 170H386" stroke="black" stroke-width="0.5"/>
<path d="M200 33L197.113 38H202.887L200 33ZM200 57H200.5V37.5H200H199.5V57H200Z" fill="black"/>
<path d="M43 121.5C79 114 160.5 99.3 198.5 100.5C246 102 298 99 351 54.5" stroke="black" stroke-width="2"/>
</g>
<defs>
<clipPath id="clip0_61_110">
<rect width="389" height="191" fill="white"/>
</clipPath>
</defs>
</svg>
