<svg width="152" height="152" viewBox="0 0 152 152" fill="none" xmlns="http://www.w3.org/2000/svg">
<path d="M13.5237 82.7889C14.5141 82.6803 21.7717 82.3512 27.0569 82.1011C31.4047 81.8954 35.5774 80.8647 39.9428 79.4492C43.8737 78.1746 47.0626 75.4044 50.0545 72.2136C52.2406 69.8823 52.6751 67.4681 53.3734 66.7517C55.3557 64.7183 58.1687 71.4715 60.4729 73.692C62.7482 75.8845 65.7308 77.5224 69.4107 79.6675C72.1715 81.2768 75.2645 81.522 82.2851 81.5106C88.2655 81.5009 90.6083 78.6379 92.722 76.7897C95.3363 74.5038 99.5941 79.2778 102.675 80.3855C106.222 81.6608 110.532 81.8605 115.799 82.8884C119.068 83.3008 121.916 83.6689 126.614 84.0689C129.982 84.2226 135.345 84.2761 141.196 84.0021" stroke="white" stroke-width="6" stroke-linecap="round"/>
</svg>
