<svg width="152" height="152" viewBox="0 0 152 152" fill="none" xmlns="http://www.w3.org/2000/svg">
<path d="M10.2241 80.4484C11.054 80.6154 14.864 80.9543 18.9603 80.7407C22.2462 80.5693 26.7745 78.7388 33.2632 76.4299C39.2572 74.2971 41.3349 71.2293 43.2567 68.6093C43.7105 67.9908 44.1179 67.3624 44.7348 67.5408C48.7875 68.7128 50.3756 73.0392 52.5509 75.0727C54.9402 77.3062 58.5082 79.141 62.3004 80.9742C63.9872 81.7896 66.6599 81.9632 69.584 81.902C73.2429 81.8254 75.9667 77.8067 78.1584 75.8823C81.3786 73.0548 86.0468 79.15 89.4175 80.0921C92.9448 81.0779 97.0435 81.2151 101.319 81.814C105.263 82.3664 110.24 80.9499 112.995 78.937C113.573 78.5149 113.993 77.8987 115.178 77.886C121.538 77.818 125.585 80.6065 128.881 81.3003C129.84 81.413 131.028 81.4665 132.154 81.3822C133.279 81.298 134.306 81.0743 137.427 81.0059" stroke="white" stroke-width="6" stroke-linecap="round"/>
</svg>
