<svg width="152" height="152" viewBox="0 0 152 152" fill="none" xmlns="http://www.w3.org/2000/svg">
<path d="M11 76.1928C11.7043 76.1489 19.8186 75.1562 28.3305 73.1909C33.7324 71.9437 38.9944 69.7994 41.4278 68.7908C44.7826 67.4003 47.7517 65.4894 50.7075 62.7063C53.348 60.2201 56.7275 57.2382 58.536 55.7844C58.9838 55.4244 59.3551 55.0135 59.8872 55.0011C62.4238 54.942 64.446 57.2272 66.7168 58.8503C69.2465 60.6583 73.3571 64.8045 77.5352 67.8535C80.2636 69.8445 82.7391 70.511 86.0612 71.8167C88.4797 72.7673 90.9043 73.1992 93.9734 72.8994C98.6399 72.4437 101.502 69.2304 104.513 67.8268C107.053 66.6433 109.993 71.6268 112.778 73.1628C115.898 74.8833 120.671 71.9801 124.837 69.3626C125.837 68.7338 126.556 68.3876 127.124 68.4712C129.587 68.8335 131.854 72.1035 135.279 72.9665C136.167 73.0359 137.139 73.0359 137.929 73.0839C138.718 73.132 139.294 73.2281 140.531 73.3271" stroke="white" stroke-width="6" stroke-linecap="round"/>
</svg>
