<svg width="152" height="152" viewBox="0 0 152 152" fill="none" xmlns="http://www.w3.org/2000/svg">
<path d="M11.2405 79.0693C11.7233 78.8325 13.8637 78.1223 15.9959 77.02C18.2327 75.8637 20.6087 73.497 22.4359 71.9891C24.5571 70.2385 26.6658 75.576 28.8807 76.4936C31.2338 77.4683 36.4996 77.4322 42.2843 76.8142C46.5611 76.3573 50.4837 73.3731 52.4854 71.8609C55.534 69.5578 58.8842 61.5819 60.4218 58.6014C61.402 56.7015 63.2579 63.9418 66.1707 69.0633C67.6977 71.7481 71.1558 73.8851 74.408 75.5938C77.2694 77.0971 80.5139 76.6669 82.6682 75.9996C85.3767 75.1606 87.4332 71.8593 89.0881 70.5963C90.8846 69.2253 92.0549 73.9822 94.3156 75.6165C96.2012 76.9796 99.685 77.5167 104.298 77.5661C108.002 77.6057 111.521 74.8207 113.815 72.7334C115.018 71.6395 115.84 69.8635 116.882 69.0786C120.949 66.0148 125.443 77.9218 129.247 80.295C130.04 80.7248 130.724 80.9991 131.308 81.2657C131.892 81.5324 132.354 81.7832 132.831 82.0415" stroke="white" stroke-width="6" stroke-linecap="round"/>
</svg>
