<svg width="152" height="152" viewBox="0 0 152 152" fill="none" xmlns="http://www.w3.org/2000/svg">
<path d="M15 76C15.7358 76 17.7392 75.931 19.3266 75.8665C20.976 75.7995 22.4608 75.3384 23.9584 74.7633C26.8317 73.6598 29.3873 72.6804 30.7671 71.7269C34.0642 69.4484 37.1109 66.2297 38.748 64.2383C39.61 63.1898 40.0518 62.3884 40.5355 62.1403C42.0589 61.359 43.0465 64.0226 44.6385 65.6353C46.4107 67.4305 48.1477 68.8977 50.1224 70.4611C52.4272 72.2859 54.7202 72.7922 57.0173 73.4944C58.8309 74.0488 62.4889 73.8356 64.7973 73.63C66.6502 73.4649 69.1264 72.2274 70.9934 71.3054C73.3755 70.1292 74.2944 69.001 75.3543 68.4409C77.4592 67.3285 78.6228 70.8196 79.7827 71.549C81.1739 72.4238 82.5914 72.9989 83.8228 73.5596C85.2963 74.2306 86.9485 74.5055 90.9895 74.7365C94.7086 74.9491 97.0678 74.0949 99.2433 72.7941C101.731 71.3067 102.69 69.8805 104.609 67.5848C106.694 65.0914 107.03 63.9728 107.35 63.2291C107.55 62.7654 107.791 62.1106 108.72 62.6954C114.796 66.5189 116.415 70.99 118.068 72.3402C119.798 73.754 123.368 74.7201 125.063 75.0279C126.248 75.2432 127.538 75.3577 132.766 75.3703C133.914 75.3313 134.274 75.2267 134.616 75.1336C134.958 75.0406 135.27 74.9621 136 74.7313" stroke="white" stroke-width="6" stroke-linecap="round"/>
</svg>
