<svg width="152" height="152" viewBox="0 0 152 152" fill="none" xmlns="http://www.w3.org/2000/svg">
<path d="M11.6885 84.0746C13.7527 82.3853 19.4567 77.7604 23.145 74.6526C25.9768 72.2664 30.9558 78.6116 33.1081 80.1962C34.1011 80.9272 35.6815 81.0965 37.3347 80.9709C40.0098 80.7675 41.623 78.2865 43.6475 76.7162C44.2381 76.2582 44.9903 75.8174 45.5828 75.835C48.1322 75.911 50.2858 80.813 52.8616 83.0374C57.0923 86.6908 65.6848 79.3016 68.7351 77.4146C69.3359 77.043 69.7838 76.7655 70.8962 77.3492C76.767 80.4298 78.7757 82.0795 81.7506 82.0601C84.2145 82.0439 86.4678 79.4416 89.1024 76.8396C93.883 72.1179 96.0097 69.9567 97.7539 67.8408C99.5533 65.6578 101.063 62.6899 102.37 60.8292C102.814 60.1963 103.44 60.778 103.934 61.6269C106.628 66.255 108.16 72.8681 111.095 77.2352C112.742 79.688 115.076 80.9333 117.163 81.5369C118.411 81.0972 119.879 80.1853 121.249 79.1425C121.834 78.6669 122.196 78.3001 122.569 77.9222" stroke="white" stroke-width="6" stroke-linecap="round"/>
</svg>
