<svg width="152" height="152" viewBox="0 0 152 152" fill="none" xmlns="http://www.w3.org/2000/svg">
<path d="M9.7063 80.1439C11.6984 80.1974 17.0964 79.9672 20.4472 78.5563C24.0082 77.0568 27.5108 74.2723 30.1436 71.786C31.4743 70.5294 32.2496 68.7493 32.937 67.75C34.4118 65.606 36.6882 73.3141 39.1817 75.5056C41.9399 77.9297 45.3698 79.2784 48.7166 80.1835C51.9298 81.0525 56.2016 79.0907 59.7602 77.5604C63.7122 75.8609 66.2076 73.3158 68.1018 71.9025C70.5263 70.0936 73.6915 76.5314 77.3554 77.9616C80.9426 79.3618 85.5667 79.5741 90.3871 78.8853C96.9147 77.9525 100.122 76.668 104.832 74.3428C108.531 72.5167 109.219 68.6961 109.972 68C111.909 66.2098 114.272 72.1049 120.207 76.1433C124.553 78.6874 127.72 79.79 135.101 81.2545C136.941 81.5309 138.21 81.5844 140.49 80.9813" stroke="white" stroke-width="6" stroke-linecap="round"/>
</svg>
